<svg height="475pt" viewBox="0 -32 475.16571 475" width="475pt" xmlns="http://www.w3.org/2000/svg"><path d="m412.859375 177.976562c0 63.839844-51.753906 115.589844-115.59375 115.589844s-115.59375-51.75-115.59375-115.589844c0-63.839843 51.753906-115.59375 115.59375-115.59375s115.59375 51.753907 115.59375 115.59375zm0 0" fill="#fabe02"/><path d="m297.277344 62.367188c-5.421875.007812-10.835938.390624-16.203125 1.152343 57.007812 8.066407 99.386719 56.863281 99.386719 114.4375 0 57.578125-42.378907 106.375-99.386719 114.441407 42.847656 6.136718 85.539062-12.179688 110.613281-47.460938 25.078125-35.285156 28.34375-81.621094 8.460938-120.070312-19.886719-38.449219-59.582032-62.570313-102.871094-62.5zm0 0" fill="#f59a1d"/><path d="m343.753906 197.828125c-15.617187-.015625-30.765625 5.320313-42.929687 15.117187-26.089844-38.5625-73.695313-56.4375-118.722657-44.578124-.261718 3.171874-.429687 6.371093-.429687 9.601562.007813 53.792969 37.121094 100.472656 89.527344 112.601562 52.410156 12.132813 106.257812-13.484374 129.90625-61.804687-12.683594-19.316406-34.242188-30.949219-57.351563-30.9375zm0 0" fill="#f59a1d"/><g fill="#fabe02"><path d="m297.277344 42.175781c-3.867188 0-7-3.136719-7-7v-28.09375c0-3.863281 3.132812-6.9999998 7-6.9999998 3.867187 0 7 3.1367188 7 6.9999998v28.085938c.003906 1.855469-.734375 3.640625-2.046875 4.953125-1.3125 1.316406-3.09375 2.054687-4.953125 2.054687zm0 0"/><path d="m225.871094 61.308594c-2.503906 0-4.816406-1.335938-6.070313-3.5l-14.042969-24.328125c-1.902343-3.347657-.746093-7.597657 2.585938-9.523438s7.59375-.796875 9.539062 2.523438l14.042969 24.328125c1.246094 2.164062 1.246094 4.828125-.003906 6.992187-1.246094 2.164063-3.554687 3.5-6.050781 3.507813zm0 0"/><path d="m173.589844 113.566406c-1.234375.003906-2.445313-.316406-3.511719-.929687l-24.328125-14.046875c-2.183594-1.242188-3.535156-3.558594-3.539062-6.070313-.007813-2.511719 1.332031-4.832031 3.511718-6.082031 2.179688-1.253906 4.859375-1.242188 7.027344.03125l24.328125 14.042969c2.746094 1.582031 4.085937 4.816406 3.265625 7.875-.824219 3.0625-3.601562 5.191406-6.769531 5.1875zm0 0"/><path d="m420.941406 113.566406c-3.171875.003906-5.949218-2.121094-6.769531-5.183594-.824219-3.0625.515625-6.296874 3.261719-7.878906l24.328125-14.046875c3.34375-1.898437 7.597656-.746093 9.523437 2.585938 1.921875 3.332031.796875 7.59375-2.523437 9.539062l-24.328125 14.042969c-1.0625.617188-2.265625.941406-3.492188.941406zm0 0"/><path d="m368.660156 61.308594c-2.496094-.007813-4.804687-1.34375-6.050781-3.507813-1.25-2.164062-1.25-4.828125-.003906-6.992187l14.042969-24.328125c1.242187-2.183594 3.558593-3.535157 6.070312-3.542969 2.511719-.003906 4.835938 1.335938 6.085938 3.515625 1.25 2.175781 1.238281 4.859375-.03125 7.027344l-14.042969 24.328125c-1.25 2.167968-3.566407 3.5-6.070313 3.5zm0 0"/><path d="m297.277344 355.867188c-3.867188 0-7-3.132813-7-7v-28.101563c0-3.863281 3.132812-7 7-7 3.867187 0 7 3.136719 7 7v28.089844c.003906 1.859375-.734375 3.640625-2.046875 4.957031s-3.09375 2.054688-4.953125 2.054688zm0 0"/><path d="m468.15625 184.976562h-28.078125c-3.867187 0-7-3.136718-7-7 0-3.867187 3.132813-7 7-7h28.085937c3.867188 0 7 3.132813 7 7 0 3.863282-3.132812 7-7 7zm0 0"/><path d="m154.476562 184.976562h-28.101562c-3.867188 0-7-3.136718-7-7 0-3.867187 3.132812-7 7-7h28.101562c3.867188 0 7 3.132813 7 7 0 3.863282-3.132812 7-7 7zm0 0"/><path d="m382.71875 332.976562c-2.503906.003907-4.820312-1.332031-6.074219-3.5l-14.042969-24.328124c-1.269531-2.167969-1.28125-4.851563-.03125-7.027344 1.25-2.179688 3.574219-3.519532 6.085938-3.515625 2.511719.007812 4.828125 1.359375 6.070312 3.542969l14.042969 24.328124c1.246094 2.164063 1.246094 4.828126 0 6.992188-1.25 2.164062-3.558593 3.5-6.054687 3.507812zm0 0"/><path d="m445.253906 270.421875c-1.226562 0-2.429687-.324219-3.492187-.9375l-24.328125-14.046875c-2.183594-1.238281-3.535156-3.554688-3.539063-6.070312-.007812-2.511719 1.335938-4.832032 3.511719-6.082032 2.179688-1.253906 4.859375-1.242187 7.027344.03125l24.328125 14.042969c2.746093 1.582031 4.085937 4.816406 3.265625 7.878906-.824219 3.0625-3.601563 5.191407-6.773438 5.183594zm0 0"/><path d="m149.277344 270.421875c-3.167969.003906-5.945313-2.125-6.769532-5.1875-.820312-3.058594.519532-6.292969 3.265626-7.875l24.304687-14.042969c2.167969-1.273437 4.847656-1.285156 7.027344-.03125 2.175781 1.25 3.519531 3.570313 3.511719 6.082032-.003907 2.515624-1.355469 4.832031-3.539063 6.070312l-24.328125 14.046875c-1.054688.609375-2.253906.933594-3.472656.9375zm0 0"/><path d="m211.8125 332.976562c-2.496094-.007812-4.804688-1.34375-6.054688-3.507812-1.246093-2.164062-1.246093-4.828125 0-6.992188l14.042969-24.328124c1.242188-2.183594 3.558594-3.535157 6.070313-3.542969 2.511718-.003907 4.835937 1.335937 6.085937 3.515625 1.25 2.175781 1.238281 4.859375-.03125 7.027344l-14.042969 24.328124c-1.253906 2.164063-3.566406 3.5-6.070312 3.5zm0 0"/></g><path d="m411.824219 301.566406c3.542969-27.746094-10.117188-54.867187-34.523438-68.535156s-54.667969-11.144531-76.476562 6.375c-24.148438-35.699219-66.976563-53.929688-109.449219-46.589844-42.46875 7.34375-76.695312 38.894532-87.457031 80.628906-26.714844-13.078124-58.71875-8.429687-80.609375 11.710938s-29.183594 51.648438-18.371094 79.359375c10.816406 27.710937 37.523438 45.949219 67.269531 45.9375h331.199219c28.671875.09375 52.5625-21.945313 54.769531-50.53125 2.210938-28.589844-18.003906-54.039063-46.351562-58.355469zm0 0" fill="#26a3b9"/><path d="m411.824219 301.566406c2.609375-19.574218-3.386719-39.320312-16.4375-54.136718-13.054688-14.820313-31.886719-23.261719-51.632813-23.144532-7 .015625-13.957031 1.105469-20.628906 3.234375 31.6875 9.875 51.644531 41.148438 47.257812 74.046875 28.285157 4.378906 48.429688 29.800782 46.21875 58.339844-2.210937 28.539062-26.027343 50.558594-54.652343 50.527344h41.445312c28.621094.03125 52.441407-21.988282 54.652344-50.527344 2.207031-28.539062-17.933594-53.960938-46.222656-58.339844zm0 0" fill="#168aa5"/><path d="m72.628906 266.046875c5.601563 45 33.035156 60.578125 33.035156 60.578125-4.785156-17.34375-5.386718-35.578125-1.746093-53.199219-9.738281-4.792969-20.433594-7.316406-31.289063-7.378906zm0 0" fill="#168aa5"/></svg>