<svg height="458pt" viewBox="0 -91 458.22868 458" width="458pt" xmlns="http://www.w3.org/2000/svg"><path d="m116.929688.113281c-24.542969.015625-45.871094 16.859375-51.570313 40.730469-12.730469-5.65625-27.621094-3.023438-37.636719 6.660156s-13.152344 24.472656-7.929687 37.386719c5.222656 12.914063 17.757812 21.367187 31.6875 21.367187h65.449219c29.3125 0 53.070312-23.761718 53.070312-53.070312 0-29.3125-23.757812-53.074219-53.070312-53.074219zm0 0" fill="#d9ecf2"/><path d="m170 53.1875c0-19.15625-10.332031-36.820312-27.027344-46.214844-27.1875 14.433594-47.070312 39.617188-54.800781 69.414063-22.34375-11.039063-48.816406-9.675781-69.910156 3.601562 3.660156 15.390625 17.40625 26.261719 33.226562 26.269531h65.441407c29.3125 0 53.070312-23.761718 53.070312-53.070312zm0 0" fill="#bdd9e5"/><path d="m51.484375 37.882812c-.570313 0-1.125.054688-1.691406.082032.46875 10.589844 6.347656 20.191406 15.566406 25.421875-1.71875-7.417969-1.71875-15.128907 0-22.542969-4.367187-1.953125-9.09375-2.960938-13.875-2.960938zm0 0" fill="#bdd9e5"/><path d="m411.847656 120.289062c3.535156-27.746093-10.128906-54.859374-34.535156-68.523437s-54.667969-11.140625-76.472656 6.378906c-24.136719-35.707031-66.96875-53.953125-109.445313-46.621093-42.476562 7.335937-76.707031 38.886718-87.476562 80.621093-26.714844-13.078125-58.71875-8.429687-80.609375 11.710938-21.890625 20.144531-29.183594 51.648437-18.371094 79.359375 10.816406 27.710937 37.523438 45.949218 67.269531 45.941406h331.199219c28.625.027344 52.441406-21.992188 54.652344-50.53125 2.207031-28.535156-17.933594-53.960938-46.222656-58.339844zm0 0" fill="#26a3b9"/><path d="m411.847656 120.289062c2.871094-22.652343-5.707031-45.25-22.890625-60.289062-17.183593-15.039062-40.71875-20.546875-62.792969-14.699219 33.5 8.492188 55.324219 40.734375 50.753907 74.988281 28.285156 4.378907 48.429687 29.804688 46.21875 58.339844-2.210938 28.539063-26.027344 50.558594-54.652344 50.53125h34.929687c28.625.027344 52.441407-21.992187 54.652344-50.53125 2.210938-28.535156-17.933594-53.960937-46.21875-58.339844zm0 0" fill="#168aa5"/><path d="m345.839844 153.4375c-7.15625.003906-14.230469 1.539062-20.746094 4.5-12.902344-27.113281-42.207031-42.40625-71.828125-37.480469-29.625 4.921875-52.40625 28.871094-55.84375 58.703125-13.867187-4.023437-28.820313.105469-38.65625 10.675782-9.839844 10.570312-12.886719 25.777343-7.878906 39.324218h238.5625c9.074219-15.59375 9.121093-34.847656.117187-50.480468-9.003906-15.632813-25.675781-25.257813-43.714844-25.238282zm0 0" fill="#168aa5"/><path d="m78.753906 85.070312c2.28125 42.03125 26.933594 60.265626 26.933594 60.265626-4.792969-17.339844-5.398438-35.570313-1.769531-53.191407-7.886719-3.871093-16.414063-6.269531-25.164063-7.074219zm0 0" fill="#168aa5"/><path d="m345.839844 176.09375c-7.15625.003906-14.230469 1.539062-20.746094 4.5-12.902344-27.113281-42.207031-42.40625-71.828125-37.480469-29.625 4.921875-52.40625 28.871094-55.84375 58.699219-14.394531-4.128906-29.878906.5-39.640625 11.859375-9.761719 11.355469-12.011719 27.359375-5.761719 40.972656 6.25 13.609375 19.855469 22.332031 34.832031 22.328125h158.988282c27.859375 0 50.445312-22.582031 50.445312-50.441406 0-27.855469-22.585937-50.441406-50.445312-50.441406zm0 0" fill="#d9ecf2"/><g fill="#bdd9e5"><path d="m299.410156 180.59375c6.515625-2.960938 13.589844-4.496094 20.746094-4.5.890625 0 1.757812.089844 2.632812.132812-14.28125-25.132812-43.023437-38.332031-71.390624-32.78125 20.984374 4.078126 38.796874 17.859376 48.011718 37.148438zm0 0"/><path d="m345.839844 176.09375c-4.3125.019531-8.609375.601562-12.773438 1.730469 24.542969 6.425781 40.484375 30.097656 37.210938 55.257812-3.273438 25.160157-24.742188 43.964844-50.117188 43.894531h25.679688c27.859375 0 50.445312-22.582031 50.445312-50.441406 0-27.855468-22.585937-50.441406-50.445312-50.441406zm0 0"/><path d="m330 214.277344s16.132812-11.050782 14.914062-38.132813c-6.839843.121094-13.585937 1.636719-19.820312 4.453125 4.585938 10.59375 6.28125 22.21875 4.90625 33.679688zm0 0"/></g></svg>