<svg height="453pt" viewBox="0 -87 453.96241 453" width="453pt" xmlns="http://www.w3.org/2000/svg"><path d="m375.347656 61.890625c-11.976562.007813-23.796875 2.722656-34.578125 7.941406-17.382812-43.164062-59.898437-70.851562-106.402343-69.289062-46.503907 1.5625-87.066407 32.039062-101.511719 76.273437-27.292969.0625-52.234375 15.453125-64.527344 39.820313-19.625-2.933594-39.238281 5.363281-50.804687 21.488281-11.566407 16.121094-13.136719 37.363281-4.070313 55.011719 9.066406 17.648437 27.246094 28.742187 47.085937 28.734375h314.800782c43.636718-.757813 78.613281-36.34375 78.613281-79.988282 0-43.640624-34.976563-79.230468-78.613281-79.988281zm0 0" fill="#d9ecf2"/><g fill="#bdd9e5"><path d="m315.871094 74.339844c7.972656-2.945313 16.398437-4.46875 24.898437-4.507813-.867187-2.082031-2.707031-6.160156-3.203125-7.136719-20.460937-42.609374-65.914062-67.320312-112.796875-61.328124 40.632813 4.917968 76.324219 36.285156 91.101563 72.972656zm0 0"/><path d="m375.347656 61.890625c-4.546875 0-9.085937.394531-13.5625 1.175781 41.035156 6.839844 69.964844 44.007813 66.523438 85.46875-3.4375 41.457032-38.097656 73.347656-79.699219 73.332032h26.738281c43.636719-.757813 78.613282-36.34375 78.613282-79.988282 0-43.640625-34.976563-79.230468-78.613282-79.988281zm0 0"/><path d="m428.601562 201.445312c-9.960937-17.359374-31.597656-24.144531-49.6875-15.574218-.371093-36.496094-27.847656-67.007813-64.109374-71.1875-36.257813-4.175782-69.957032 19.289062-78.617188 54.742187-15.933594-6.554687-34.179688-3.792969-47.460938 7.179688-13.28125 10.976562-19.429687 28.378906-15.996093 45.261719h202.617187c19.664063.003906 38.632813-7.269532 53.253906-20.421876zm0 0"/><path d="m105.300781 82.359375c4.246094 32.460937 33.65625 44.179687 33.65625 44.179687s-15.945312-19.6875-6.089843-49.722656c-9.464844.015625-18.832032 1.902344-27.566407 5.542969zm0 0"/></g><path d="m395.285156 202.636719c-5.664062.003906-11.253906 1.265625-16.371094 3.691406-.371093-36.496094-27.847656-67.011719-64.109374-71.1875-36.257813-4.179687-69.957032 19.285156-78.617188 54.742187-17.425781-7.183593-37.46875-3.167968-50.78125 10.175782s-17.285156 33.394531-10.058594 50.804687c7.226563 17.410157 24.226563 28.757813 43.078125 28.753907h176.859375c21.257813 0 38.492188-17.234376 38.492188-38.492188s-17.234375-38.492188-38.492188-38.492188zm0 0" fill="#26a3b9"/><path d="m355.425781 206.328125c7.660157-2.3125 15.828125-2.3125 23.488281 0 0-1.015625-.0625-2.03125-.1875-3.039063-1.046874-20.597656-10.84375-39.765624-26.925781-52.679687-16.085937-12.914063-36.917969-18.34375-57.257812-14.917969 34.773437 5.601563 60.472656 35.414063 60.882812 70.636719zm0 0" fill="#168aa5"/><path d="m395.285156 202.636719c-3.960937.011719-7.894531.640625-11.65625 1.871093 18.027344 5.824219 29.132813 23.898438 26.183594 42.613282-2.945312 18.714844-19.074219 32.5-38.019531 32.496094h23.492187c21.257813 0 38.492188-17.234376 38.492188-38.492188s-17.234375-38.492188-38.492188-38.492188zm0 0" fill="#168aa5"/><path d="m223.8125 186.703125c-4.179688 17.328125 3.84375 35.296875 19.539062 43.746094 0 0-13.636718-12.753907-7.164062-40.566407-3.960938-1.625-8.125-2.695312-12.375-3.179687zm0 0" fill="#168aa5"/><path d="m83.828125 19.304688h-56.660156c-3.867188 0-7-3.136719-7-7 0-3.867188 3.132812-7 7-7h56.660156c3.867187 0 7 3.132812 7 7 0 3.863281-3.132813 7-7 7zm0 0" fill="#26a3b9"/><path d="m137.328125 19.304688h-25c-3.867187 0-7-3.136719-7-7 0-3.867188 3.132813-7 7-7h25c3.867187 0 7 3.132812 7 7 0 3.863281-3.132813 7-7 7zm0 0" fill="#26a3b9"/><path d="m114.578125 55.304688h-69.011719c-3.863281 0-7-3.136719-7-7 0-3.867188 3.136719-7 7-7h69c3.867188 0 7 3.132812 7 7 0 3.863281-3.132812 7-7 7zm0 0" fill="#26a3b9"/><path d="m47.367188 86.480469h-40.367188c-3.867188 0-7-3.136719-7-7 0-3.867188 3.132812-7 7-7h40.367188c3.867187 0 7 3.132812 7 7 0 3.863281-3.132813 7-7 7zm0 0" fill="#d9ecf2"/></svg>