<svg height="444pt" viewBox="0 -2 444.872 444" width="444pt" xmlns="http://www.w3.org/2000/svg"><path d="m0 235.335938c0 129.425781 31.789062 169.011718 31.789062 169.011718s7.691407-48.984375 40.449219-71.957031c10.199219 56.570313 74.480469 108.046875 156.824219 108.046875 125.535156 0 179.914062-36.082031 179.914062-36.082031-33.914062-2.554688-65.003906-27.230469-71.957031-40.453125 43.296875-22 107.851563-80.757813 107.851563-167.71875 0-129.421875-35.894532-169.011719-35.894532-169.011719s-7.691406 48.984375-40.453124 71.957031c-23.410157-43.664062-87.480469-98.691406-176.753907-98.691406-103.074219 0-159.980469 26.710938-159.980469 26.710938s58.925782 16.183593 71.949219 40.464843c0 0-103.738281 49.046875-103.738281 167.722657zm0 0" fill="#d9ecf2"/><path d="m110.484375 122.539062c-61.050781 61.050782-64.726563 94.71875-64.726563 94.71875s26.734376-19.476562 53.023438-14.863281c-21.878906 31.488281-15.828125 86.09375 23.011719 124.933594 59.199219 59.199219 101.882812 67.847656 101.882812 67.847656-14.800781-17.199219-17.816406-43.507812-14.859375-53.023437 30.800782 10.046875 88.96875 12.78125 130-28.242188 61.046875-61.046875 62.800782-96.652344 62.800782-96.652344s-26.738282 19.472657-53.023438 14.859376c9.546875-31.632813 5.277344-87.804688-36.835938-129.917969-48.636718-48.621094-88.082031-62.863281-88.082031-62.863281s20.167969 35.429687 14.859375 53.023437c0 0-72.070312-25.800781-128.050781 30.179687zm0 0" fill="#bdd9e5"/><path d="m119.039062 130.035156c-56.398437 56.402344-59.78125 87.480469-59.78125 87.480469s24.691407-18 48.96875-13.722656c-20.203124 29.082031-14.613281 79.511719 21.257813 115.386719 54.6875 54.6875 94.09375 62.660156 94.09375 62.660156-13.65625-15.902344-16.453125-40.203125-13.722656-49.003906 28.445312 9.28125 82.171875 11.804687 120.054687-26.082032 56.402344-56.402344 58-89.273437 58-89.273437s-24.691406 18-48.96875 13.722656c8.796875-29.199219 4.875-81.09375-34-120-44.929687-44.871094-81.363281-58.027344-81.363281-58.027344s18.628906 32.71875 13.726563 48.972657c0 0-66.566407-23.828126-118.265626 27.886718zm0 0" fill="#26a3b9"/><path d="m308.300781 217.5c0 46.789062-37.929687 84.71875-84.722656 84.71875-46.789063 0-84.71875-37.929688-84.71875-84.71875s37.929687-84.71875 84.71875-84.71875c46.792969 0 84.722656 37.929688 84.722656 84.71875zm0 0" fill="#168aa5"/><path d="m289.488281 217.5c0 36.398438-29.507812 65.90625-65.910156 65.90625-36.398437 0-65.90625-29.507812-65.90625-65.90625s29.507813-65.90625 65.90625-65.90625c36.402344 0 65.910156 29.507812 65.910156 65.90625zm0 0" fill="#d9ecf2"/></svg>