<svg height="449pt" viewBox="0 -29 449.54258 449" width="449pt" xmlns="http://www.w3.org/2000/svg"><path d="m45.601562 108.53125c-3.472656-27.214844 9.929688-53.8125 33.867188-67.21875 23.941406-13.40625 53.625-10.933594 75.015625 6.25 23.679687-35.027344 65.691406-52.921875 107.355469-45.722656 41.664062 7.199218 75.238281 38.152344 85.792968 79.09375 26.207032-12.816406 57.589844-8.25 79.054688 11.503906s28.617188 50.652344 18.011719 77.828125c-10.601563 27.179687-36.789063 45.070313-65.960938 45.066406h-324.867187c-28.117188.085938-51.539063-21.527343-53.710938-49.558593s17.644532-52.996094 45.4375-57.242188zm0 0" fill="#d9ecf2"/><path d="m307.703125 80.933594c9.671875-4.773438 20.316406-7.261719 31.101563-7.269532 2.273437 0 4.511718.132813 6.726562.339844-16.953125-51.164062-69.160156-81.878906-122.117188-71.839844 40.984376 7.710938 73.824219 38.402344 84.289063 78.769532zm0 0" fill="#bdd9e5"/><path d="m378.730469 73.664062c-6.753907 0-13.46875.980469-19.941407 2.910157 33.824219 9.898437 55.214844 43.167969 50.183594 78.046875-5.027344 34.882812-34.941406 60.753906-70.183594 60.699218h39.925782c39.117187 0 70.828125-31.710937 70.828125-70.828124 0-39.117188-31.710938-70.828126-70.828125-70.828126zm0 0" fill="#bdd9e5"/><path d="m345.90625 133.097656s21.199219-18.605468 26.496094-59.121094c-8.621094.78125-17.027344 3.136719-24.800782 6.953126 3.574219 17.277343 2.992188 35.15625-1.695312 52.167968zm0 0" fill="#bdd9e5"/><path d="m356.503906 354.292969c0 11.246093-9.117187 20.363281-20.367187 20.363281-11.246094 0-20.363281-9.117188-20.363281-20.363281 0-11.246094 9.117187-20.363281 20.363281-20.363281 11.25 0 20.367187 9.117187 20.367187 20.363281zm-308.609375-55.816407c-11.25 0-20.367187 9.121094-20.363281 20.371094.003906 11.246094 9.125 20.363282 20.375 20.359375 11.246094-.007812 20.359375-9.132812 20.351562-20.382812-.007812-11.238281-9.121093-20.347657-20.363281-20.347657zm95.339844 29.777344c-14.378906 0-26.035156 11.65625-26.035156 26.035156 0 14.378907 11.65625 26.035157 26.035156 26.035157s26.035156-11.65625 26.035156-26.035157c0-14.378906-11.65625-26.035156-26.035156-26.035156zm197.785156-86.164062c-8.117187 0-14.695312 6.578125-14.695312 14.695312 0 8.117188 6.578125 14.695313 14.695312 14.695313 8.117188 0 14.695313-6.578125 14.695313-14.695313 0-8.117187-6.578125-14.695312-14.695313-14.695312zm0 0" fill="#d9ecf2"/><path d="m343.546875 256.785156c-.007813 5.75-3.375 10.96875-8.613281 13.34375 6.171875 2.847656 13.488281 1.09375 17.699218-4.246094 4.207032-5.335937 4.207032-12.859374 0-18.195312-4.210937-5.339844-11.527343-7.09375-17.699218-4.246094 5.238281 2.375 8.605468 7.59375 8.613281 13.34375zm0 0" fill="#bdd9e5"/><path d="m47.894531 298.476562c-2.070312.027344-4.121093.375-6.082031 1.027344 8.488281 2.609375 14.285156 10.453125 14.285156 19.335938 0 8.882812-5.796875 16.726562-14.285156 19.335937 1.960938.65625 4.011719 1 6.082031 1.03125 11.246094 0 20.363281-9.121093 20.363281-20.367187s-9.117187-20.363282-20.363281-20.363282zm0 0" fill="#bdd9e5"/><path d="m143.234375 328.253906c-2.050781.007813-4.09375.257813-6.082031.742188 11.707031 2.792968 19.972656 13.253906 19.972656 25.292968 0 12.039063-8.265625 22.5-19.972656 25.292969 9.757812 2.355469 20.003906-1.109375 26.328125-8.910156 6.324219-7.796875 7.597656-18.539063 3.273437-27.601563-4.324218-9.0625-13.476562-14.828124-23.519531-14.816406zm0 0" fill="#bdd9e5"/><path d="m336.136719 333.929688c-2.066407.027343-4.117188.375-6.082031 1.027343 8.488281 2.609375 14.28125 10.453125 14.28125 19.335938 0 8.878906-5.792969 16.722656-14.28125 19.332031 1.964843.652344 4.015624 1 6.082031 1.027344 11.25 0 20.367187-9.117188 20.367187-20.363282 0-11.246093-9.117187-20.363281-20.367187-20.363281zm0 0" fill="#bdd9e5"/><g fill="#26a3b9"><path d="m73.710938 278.480469c-2.6875 0-5.140626-1.542969-6.304688-3.96875-1.164062-2.421875-.835938-5.296875.839844-7.398438l21.414062-26.820312c1.539063-2.015625 4.050782-3.039063 6.558594-2.675781 2.511719.363281 4.628906 2.054687 5.535156 4.421874.90625 2.367188.464844 5.042969-1.160156 6.988282l-21.410156 26.820312c-1.328125 1.667969-3.34375 2.636719-5.472656 2.632813zm0 0"/><path d="m112.996094 310.824219c-2.691406 0-5.140625-1.542969-6.308594-3.964844-1.164062-2.421875-.839844-5.300781.839844-7.402344l30.242187-37.886719c2.414063-3.023437 6.820313-3.519531 9.839844-1.105468 3.023437 2.414062 3.519531 6.816406 1.105469 9.839844l-30.246094 37.886718c-1.328125 1.667969-3.34375 2.636719-5.472656 2.632813zm0 0"/><path d="m178.09375 310.824219c-2.6875 0-5.140625-1.542969-6.304688-3.964844-1.167968-2.421875-.839843-5.300781.835938-7.402344l40.644531-50.914062c2.414063-3.023438 6.820313-3.519531 9.839844-1.105469 3.023437 2.410156 3.519531 6.816406 1.105469 9.839844l-40.640625 50.914062c-1.328125 1.667969-3.347657 2.636719-5.480469 2.632813zm0 0"/><path d="m214.957031 346.207031c-2.691406 0-5.148437-1.542969-6.316406-3.96875-1.164063-2.429687-.835937-5.3125.851563-7.414062l75.464843-94.53125c2.414063-3.023438 6.820313-3.515625 9.839844-1.105469 3.023437 2.414062 3.519531 6.820312 1.105469 9.839844l-75.46875 94.546875c-1.328125 1.664062-3.34375 2.632812-5.476563 2.632812zm0 0"/><path d="m243.851562 391.570312c-2.691406-.003906-5.140624-1.542968-6.308593-3.96875-1.164063-2.421874-.839844-5.300781.839843-7.402343l71.917969-90.097657c2.464844-2.820312 6.714844-3.203124 9.640625-.867187 2.929688 2.335937 3.496094 6.5625 1.292969 9.589844l-71.917969 90.101562c-1.324218 1.667969-3.335937 2.640625-5.464844 2.644531zm0 0"/><path d="m373.40625 310.824219c-2.6875 0-5.140625-1.542969-6.304688-3.964844-1.167968-2.421875-.839843-5.300781.835938-7.402344l28.363281-35.535156c2.414063-3.023437 6.820313-3.515625 9.84375-1.105469 3.019531 2.414063 3.515625 6.820313 1.101563 9.839844l-28.363282 35.535156c-1.328124 1.667969-3.34375 2.636719-5.476562 2.632813zm0 0"/></g></svg>