<svg height="457pt" viewBox="0 -5 457.5 457" width="457pt" xmlns="http://www.w3.org/2000/svg"><path d="m239.785156 75.78125c34.976563 34.976562 34.976563 91.683594 0 126.660156-34.976562 34.972656-91.683594 34.972656-126.65625 0-34.976562-34.976562-34.976562-91.683594 0-126.660156 34.972656-34.972656 91.679688-34.972656 126.65625 0zm0 0" fill="#fabe02"/><path d="m239.785156 75.78125c-20.164062-20.160156-48.738281-29.484375-76.914062-25.097656 43.714844 6.632812 76.023437 44.210937 76.023437 88.425781s-32.308593 81.796875-76.023437 88.429687c38.265625 5.921876 76-13.4375 93.507812-47.976562 17.503906-34.542969 10.808594-76.421875-16.59375-103.78125zm0 0" fill="#f59a1d"/><path d="m239.785156 202.4375c11.917969-11.917969 20.207032-26.972656 23.90625-43.417969-22.464844-24.546875-56.675781-34.632812-88.863281-26.191406-32.1875 8.4375-57.054687 34.011719-64.585937 66.421875.964843 1.0625 1.859374 2.164062 2.886718 3.199219 34.976563 34.972656 91.683594 34.96875 126.65625-.011719zm0 0" fill="#f59a1d"/><g fill="#fabe02"><path d="m95.796875 65.449219c-1.859375.003906-3.636719-.734375-4.949219-2.050781l-15.867187-15.867188c-2.734375-2.734375-2.734375-7.167969 0-9.902344 2.734375-2.730468 7.164062-2.730468 9.898437 0l15.847656 15.875c2 2 2.601563 5.011719 1.515626 7.625-1.082032 2.613282-3.632813 4.320313-6.460938 4.320313zm0 0"/><path d="m66.277344 116.589844c-.613282 0-1.226563-.078125-1.816406-.238282l-21.671876-5.808593c-3.734374-1-5.953124-4.839844-4.949218-8.574219 1-3.734375 4.835937-5.949219 8.570312-4.949219l21.675782 5.808594c3.386718.910156 5.578124 4.191406 5.121093 7.671875s-3.421875 6.082031-6.929687 6.085938zm0 0"/><path d="m44.597656 181.441406c-3.511718-.003906-6.476562-2.605468-6.933594-6.085937-.457031-3.480469 1.734376-6.761719 5.125-7.671875l21.671876-5.804688c3.734374-1 7.570312 1.21875 8.570312 4.953125s-1.214844 7.570313-4.953125 8.570313l-21.671875 5.792968c-.589844.160157-1.199219.246094-1.808594.246094zm0 0"/><path d="m205.980469 35.929688c-.613281 0-1.222657-.078126-1.816407-.238282-3.738281-1-5.953124-4.839844-4.953124-8.578125l5.808593-21.675781c1-3.734375 4.839844-5.949219 8.574219-4.949219s5.949219 4.839844 4.949219 8.574219l-5.816407 21.679688c-.820312 3.054687-3.582031 5.179687-6.746093 5.1875zm0 0"/><path d="m146.929688 35.929688c-3.171876-.003907-5.941407-2.136719-6.757813-5.199219l-5.808594-21.664063c-1-3.734375 1.214844-7.574218 4.949219-8.574218s7.574219 1.214843 8.574219 4.949218l5.808593 21.675782c.480469 1.796874.226563 3.710937-.707031 5.316406-.929687 1.609375-2.464843 2.78125-4.261719 3.257812-.585937.15625-1.191406.238282-1.796874.238282zm0 0"/><path d="m272.980469 242.632812c-1.855469.003907-3.636719-.734374-4.949219-2.050781l-15.867188-15.867187c-2.734374-2.734375-2.734374-7.167969 0-9.898438 2.734376-2.734375 7.167969-2.734375 9.898438 0l15.867188 15.871094c2 2 2.597656 5.011719 1.515624 7.625-1.085937 2.613281-3.636718 4.320312-6.464843 4.320312zm0 0"/><path d="m257.128906 65.449219c-2.832031 0-5.382812-1.707031-6.464844-4.320313-1.082031-2.613281-.484374-5.625 1.515626-7.625l15.867187-15.871094c2.765625-2.527343 7.03125-2.429687 9.679687.222657 2.644532 2.652343 2.734376 6.917969.203126 9.679687l-15.871094 15.867188c-1.304688 1.308594-3.078125 2.046875-4.929688 2.046875zm0 0"/><path d="m79.929688 242.632812c-2.832032 0-5.382813-1.707031-6.464844-4.320312-1.082032-2.613281-.484375-5.625 1.515625-7.625l15.867187-15.867188c2.765625-2.53125 7.03125-2.433593 9.679688.21875 2.644531 2.652344 2.734375 6.917969.199218 9.679688l-15.867187 15.867188c-1.308594 1.308593-3.082031 2.046874-4.929687 2.046874zm0 0"/><path d="m308.328125 181.441406c-.613281 0-1.222656-.078125-1.816406-.238281l-21.675781-5.804687c-3.734376-1-5.953126-4.835938-4.953126-8.570313s4.839844-5.953125 8.574219-4.953125l21.675781 5.804688c3.390626.910156 5.578126 4.191406 5.121094 7.671874-.457031 3.480469-3.421875 6.082032-6.929687 6.085938zm0 0"/><path d="m286.632812 116.589844c-3.511718-.003906-6.476562-2.605469-6.933593-6.085938-.457031-3.480468 1.734375-6.761718 5.125-7.671875l21.675781-5.808593c3.734375-1 7.574219 1.214843 8.574219 4.949218s-1.214844 7.574219-4.949219 8.574219l-21.675781 5.804687c-.59375.160157-1.203125.238282-1.816407.238282zm0 0"/><path d="m141.128906 277.964844c-.613281.003906-1.226562-.078125-1.816406-.238282-3.738281-1-5.953125-4.839843-4.953125-8.574218l5.808594-21.679688c1-3.734375 4.839843-5.949218 8.574219-4.949218 3.734374 1 5.949218 4.839843 4.949218 8.574218l-5.804687 21.695313c-.824219 3.054687-3.597657 5.171875-6.757813 5.171875zm0 0"/><path d="m211.78125 277.964844c-3.171875-.003906-5.941406-2.136719-6.757812-5.199219l-5.808594-21.675781c-.804688-3.65625 1.410156-7.304688 5.027344-8.269532 3.621093-.96875 7.359374 1.085938 8.484374 4.660157l5.808594 21.675781c1.003906 3.734375-1.214844 7.574219-4.949218 8.574219-.589844.15625-1.195313.238281-1.804688.234375zm0 0"/></g><path d="m316.105469 208.875c-11.246094 0-22.265625 3.132812-31.828125 9.042969-11.050782-41.527344-49.996094-69.390625-92.867188-66.4375s-77.628906 35.890625-82.878906 78.542969c-19.160156-4.710938-39.320312 2.039062-51.789062 17.332031-12.464844 15.292969-15.011719 36.398437-6.539063 54.21875 8.472656 17.816406 26.449219 29.164062 46.179687 29.148437h219.722657c33.648437 0 60.925781-27.277344 60.925781-60.925781s-27.277344-60.925781-60.925781-60.925781zm0 0" fill="#26a3b9"/><path d="m53.871094 307.96875c9.390625 14.09375 25.160156 22.609375 42.09375 22.738281h175.703125c7.289062 0 13.199219-5.910156 13.199219-13.199219 0-7.292968-5.910157-13.203124-13.199219-13.203124h-208.683594c-3.398437 0-6.664063 1.3125-9.113281 3.664062zm0 0" fill="#168aa5"/><path d="m366.328125 304.289062h-35.839844c-6.40625-.011718-11.894531 4.578126-13.011719 10.886719-1.113281 6.308594 2.46875 12.503907 8.492188 14.6875 16.375-2.667969 30.953125-11.902343 40.359375-25.574219zm0 0" fill="#168aa5"/><path d="m316.105469 208.875c-3.882813.007812-7.75.390625-11.558594 1.144531 30.800781 6 52.003906 34.414063 48.988281 65.648438-3.019531 31.234375-29.269531 55.066406-60.648437 55.058593h23.203125c33.648437 0 60.925781-27.277343 60.925781-60.925781 0-33.648437-27.277344-60.925781-60.925781-60.925781zm0 0" fill="#168aa5"/><path d="m281.0625 208.367188c-14.75-38.578126-54.148438-61.894532-95.0625-56.257813 23.214844 3.027344 44.320312 15.019531 58.800781 33.414063 9.953125 13.183593 14.8125 29.519531 13.675781 46-.285156 5.929687-.042968 11.871093.726563 17.757812.125.898438.871094 1.574219 1.777344 1.609375.902343.035156 1.699219-.585937 1.890625-1.46875 2.535156-12.984375 10.277344-24.363281 21.421875-31.492187-.820313-3.074219-1.804688-6.101563-2.953125-9.066407-.082032-.171875-.175782-.335937-.277344-.496093zm0 0" fill="#168aa5"/><path d="m257.449219 330.707031h-208.6875c-7.292969 0-13.203125-5.910156-13.203125-13.199219 0-7.292968 5.910156-13.203124 13.203125-13.203124h208.6875c7.289062 0 13.199219 5.910156 13.199219 13.203124 0 7.289063-5.910157 13.199219-13.199219 13.199219zm114.066406-13.199219c0-7.292968-5.910156-13.203124-13.199219-13.203124h-42.070312c-7.289063 0-13.199219 5.910156-13.199219 13.203124 0 7.289063 5.910156 13.199219 13.199219 13.199219h42.0625c3.503906.003907 6.867187-1.382812 9.347656-3.863281 2.480469-2.476562 3.875-5.839844 3.871094-9.34375zm68.699219 0c0-7.292968-5.910156-13.203124-13.199219-13.203124h-14.421875c-7.292969 0-13.203125 5.910156-13.203125 13.203124 0 7.289063 5.910156 13.199219 13.203125 13.199219h14.421875c7.292969-.003906 13.199219-5.917969 13.195313-13.207031zm-89.730469 58.203126c0-7.289063-5.910156-13.199219-13.199219-13.199219h-196.863281c-7.292969 0-13.203125 5.910156-13.203125 13.199219 0 7.289062 5.910156 13.199218 13.203125 13.199218h196.855469c7.292968.003906 13.207031-5.90625 13.207031-13.199218zm-117.390625 58.214843c0-7.289062-5.910156-13.199219-13.203125-13.199219h-153.164063c-7.289062 0-13.199218 5.910157-13.199218 13.199219 0 7.289063 5.910156 13.199219 13.199218 13.199219h153.15625c7.292969.007812 13.210938-5.90625 13.210938-13.199219zm166.917969 0c0-7.289062-5.910157-13.199219-13.199219-13.199219h-99.066406c-7.289063 0-13.199219 5.910157-13.199219 13.199219 0 7.289063 5.910156 13.199219 13.199219 13.199219h99.054687c7.292969.007812 13.210938-5.902344 13.210938-13.199219zm57.480469-58.214843c0-7.289063-5.910157-13.199219-13.199219-13.199219h-51.523438c-7.292969 0-13.203125 5.910156-13.203125 13.199219 0 7.289062 5.910156 13.199218 13.203125 13.199218h51.511719c7.292969.003906 13.207031-5.90625 13.207031-13.199218zm-359.09375 0c0-7.289063-5.910157-13.199219-13.199219-13.199219h-72c-7.289063 0-13.199219 5.910156-13.199219 13.199219 0 7.289062 5.910156 13.199218 13.199219 13.199218h72c7.289062 0 13.195312-5.910156 13.195312-13.199218zm0 0" fill="#d9ecf2"/><path d="m319.703125 388.917969h17.574219c7.289062 0 13.199218-5.910157 13.199218-13.199219s-5.910156-13.199219-13.199218-13.199219h-17.574219c7.292969 0 13.199219 5.910157 13.199219 13.199219s-5.90625 13.199219-13.199219 13.199219zm0 0" fill="#bdd9e5"/><path d="m422.640625 317.5c-.015625 6.667969-5.011719 12.273438-11.636719 13.046875.519532.085937 1.046875.136719 1.570313.160156h14.425781c7.289062 0 13.199219-5.910156 13.199219-13.199219 0-7.292968-5.910157-13.203124-13.199219-13.203124h-14.425781c-.523438.023437-1.050781.078124-1.570313.160156 6.617188.773437 11.613282 6.371094 11.636719 13.035156zm0 0" fill="#bdd9e5"/><path d="m67.617188 388.917969h17.570312c7.289062 0 13.199219-5.910157 13.199219-13.199219s-5.910157-13.199219-13.199219-13.199219h-17.570312c7.289062 0 13.199218 5.910157 13.199218 13.199219s-5.910156 13.199219-13.199218 13.199219zm0 0" fill="#bdd9e5"/><path d="m353.929688 317.5c0 7.289062-5.910157 13.199219-13.203126 13.199219h17.574219c7.289063 0 13.199219-5.910157 13.199219-13.199219 0-7.292969-5.910156-13.203125-13.199219-13.203125h-17.574219c7.292969 0 13.203126 5.910156 13.203126 13.203125zm0 0" fill="#bdd9e5"/><path d="m444.28125 362.503906h-17.554688c7.292969 0 13.203126 5.910156 13.203126 13.199219s-5.910157 13.199219-13.203126 13.199219h17.574219c7.289063 0 13.199219-5.910156 13.199219-13.199219s-5.910156-13.199219-13.199219-13.199219zm0 0" fill="#bdd9e5"/><path d="m253.085938 317.5c0 7.289062-5.910157 13.199219-13.203126 13.199219h17.566407c7.289062 0 13.199219-5.910157 13.199219-13.199219 0-7.292969-5.910157-13.203125-13.199219-13.203125h-17.574219c7.292969-.003906 13.210938 5.910156 13.210938 13.203125zm0 0" fill="#bdd9e5"/><path d="m386.804688 420.71875h-17.574219c7.292969 0 13.203125 5.910156 13.203125 13.199219 0 7.289062-5.910156 13.199219-13.203125 13.199219h17.574219c7.289062 0 13.199218-5.910157 13.199218-13.199219 0-7.289063-5.910156-13.199219-13.199218-13.199219zm0 0" fill="#bdd9e5"/><path d="m219.882812 420.71875h-17.554687c7.289063 0 13.199219 5.910156 13.199219 13.199219 0 7.289062-5.910156 13.199219-13.199219 13.199219h17.570313c7.292968 0 13.203124-5.910157 13.203124-13.199219 0-7.289063-5.910156-13.199219-13.203124-13.199219zm0 0" fill="#bdd9e5"/></svg>