<svg height="452pt" viewBox="0 -10 452.73599 452" width="452pt" xmlns="http://www.w3.org/2000/svg"><path d="m26.769531 37.003906 59.84375 183.542969c2.03125 6.238281 7.867188 10.445313 14.429688 10.402344 6.558593-.046875 12.335937-4.332031 14.285156-10.597657l17.769531-57.117187c1.878906-6.042969 7.335938-10.269531 13.65625-10.574219 6.324219-.308594 12.164063 3.371094 14.617188 9.203125l65.320312 155.078125c2.363282 5.609375 7.867188 9.246094 13.953125 9.222656 6.085938-.027343 11.558594-3.710937 13.871094-9.339843l56.914063-138.359375c2.339843-5.699219 7.914062-9.398438 14.078124-9.34375 6.160157.058594 11.664063 3.859375 13.898438 9.601562 2.210938 5.675782 7.613281 9.460938 13.699219 9.601563 6.085937.136719 11.65625-3.398438 14.121093-8.964844l63.09375-142.351563zm0 0" fill="#d9ecf2"/><g fill="#bdd9e5"><path d="m32.730469 55.324219h389.46875l8.121093-18.320313h-403.5625zm0 0"/><path d="m133.339844 160.585938c-2.457032-5.835938-8.296875-9.511719-14.617188-9.207032-6.324218.308594-11.777344 4.53125-13.660156 10.578125l-17.765625 57.113281c-.183594.546876-.394531 1.082032-.636719 1.601563 2.074219 6.199219 7.910156 10.355469 14.445313 10.289063 6.539062-.070313 12.285156-4.347657 14.226562-10.59375l17.769531-57.113282c.1875-.566406.40625-1.121094.660157-1.660156zm0 0"/><path d="m311.371094 177.445312c-2.234375-5.742187-7.738282-9.546874-13.902344-9.605468-6.160156-.054688-11.734375 3.644531-14.078125 9.34375l-56.90625 138.359375c-.058594.144531-.144531.269531-.203125.402343l.398438.984376c2.363281 5.609374 7.863281 9.246093 13.949218 9.21875 6.085938-.023438 11.5625-3.707032 13.875-9.335938l56.910156-138.359375c.066407-.15625.152344-.289063.222657-.441406-.070313-.1875-.183594-.359375-.265625-.566407zm0 0"/><path d="m401.71875 37.003906-62.527344 141.074219-.046875.09375c.082031.191406.1875.355469.261719.550781 2.210938 5.671875 7.617188 9.457032 13.699219 9.59375 6.085937.140625 11.65625-3.394531 14.121093-8.957031l63.09375-142.351563zm0 0"/><path d="m226.695312 252.320312c-2.816406.003907-5.359374-1.683593-6.457031-4.28125l-35.148437-83.453124c-1.503906-3.566407.167968-7.671876 3.730468-9.171876 3.566407-1.5 7.671876.171876 9.171876 3.734376l35.152343 83.457031c.910157 2.160156.675781 4.632812-.621093 6.585937-1.296876 1.953125-3.484376 3.128906-5.828126 3.132813zm0 0"/><path d="m159.863281 37.003906 24.976563 76.574219c1.703125 5.226563 6.59375 8.75 12.089844 8.710937 5.492187-.035156 10.332031-3.625 11.964843-8.875 1.578125-5.0625 6.148438-8.601562 11.441407-8.859374 5.296874-.257813 10.191406 2.824218 12.25 7.710937l14.082031 33.441406c2.273437 5.441407 7.5625 9.011719 13.457031 9.089844 5.898438.078125 11.277344-3.351563 13.695312-8.730469l49.394532-109.0625zm0 0"/></g><path d="m246.671875 73.691406c2.273437 5.441406 7.5625 9.011719 13.457031 9.089844 5.898438.078125 11.277344-3.351562 13.695313-8.730469l16.777343-37.046875h-60c.8125.976563 1.480469 2.070313 1.972657 3.242188zm0 0" fill="#d9ecf2"/><path d="m208.894531 41.394531c.5-1.609375 1.316407-3.105469 2.402344-4.398437h-27.941406l1.488281 4.554687c1.703125 5.222657 6.589844 8.742188 12.082031 8.707031 5.496094-.035156 10.332031-3.617187 11.96875-8.863281zm0 0" fill="#d9ecf2"/><path d="m197.566406 331.980469h-14.398437l11.949219-11.949219c2.734374-2.734375 2.734374-7.164062 0-9.898438-2.734376-2.734374-7.167969-2.734374-9.902344 0l-21.855469 21.847657h-34.308594l15.28125-15.28125h22.976563c3.867187 0 7-3.132813 7-7 0-3.863281-3.132813-7-7-7h-8.972656l4.996093-4.996094c2.734375-2.734375 2.734375-7.164063 0-9.898437-2.734375-2.734376-7.167969-2.734376-9.898437 0l-4.996094 4.996093v-8.960937c0-3.867188-3.136719-7-7-7-3.867188 0-7 3.132812-7 7v22.972656l-15.28125 15.28125v-34.300781l21.847656-21.847657c2.734375-2.734374 2.734375-7.167968 0-9.902343s-7.167968-2.734375-9.898437 0l-11.9375 11.9375v-14.402344c0-3.863281-3.132813-7-7-7-3.867188 0-7 3.136719-7 7v14.402344l-11.960938-11.9375c-2.734375-2.734375-7.164062-2.734375-9.898437 0s-2.734375 7.167969 0 9.902343l21.859375 21.847657v34.304687l-15.28125-15.28125v-22.976562c0-3.867188-3.132813-7-7-7-3.863281 0-7 3.132812-7 7v8.972656l-4.996094-4.996094c-2.734375-2.734375-7.164063-2.734375-9.898437 0-2.734376 2.734375-2.734376 7.164063 0 9.898438l4.976562 4.996094h-8.964844c-3.867187 0-7 3.136718-7 7 0 3.867187 3.132813 7 7 7h22.964844l15.277344 15.28125h-34.289063l-21.847656-21.847657c-2.734375-2.734375-7.167969-2.734375-9.902344 0s-2.734375 7.164063 0 9.898438l11.960938 11.9375h-14.398438c-3.867187 0-7 3.132812-7 7 0 3.867187 3.132813 7 7 7h14.398438l-11.949219 11.949219c-2.734375 2.730468-2.734375 7.164062 0 9.898437s7.167969 2.734375 9.902344 0l21.835937-21.847656h34.300781l-15.28125 15.28125h-22.972656c-3.867187 0-7 3.132812-7 7 0 3.863281 3.132813 7 7 7h8.964844l-4.992188 4.992187c-2.734374 2.730469-2.734374 7.164063 0 9.898438 2.734376 2.734375 7.164063 2.734375 9.898438 0l4.996094-4.996094v8.976562c0 3.863282 3.136718 7 7 7 3.867187 0 7-3.136718 7-7v-22.953124l15.28125-15.28125v34.304687l-21.847656 21.847656c-2.734376 2.734375-2.734376 7.167969 0 9.902344 2.734374 2.734375 7.164062 2.734375 9.898437 0l11.964844-11.972656v14.398437c0 3.867188 3.132812 7 7 7 3.867187 0 7-3.132812 7-7v-14.398437l11.949219 11.949219c2.734374 2.730468 7.164062 2.730468 9.898437 0 2.734375-2.734376 2.734375-7.167969 0-9.902344l-21.847656-21.835938v-34.304687l15.28125 15.28125v22.976562c0 3.867188 3.132812 7 7 7 3.863281 0 7-3.132812 7-7v-8.964843l4.996093 4.996093c2.734376 2.734375 7.164063 2.734375 9.898438 0s2.734375-7.164062 0-9.898437l-4.992188-4.992188h8.972657c3.867187 0 7-3.136718 7-7 0-3.867187-3.132813-7-7-7h-22.984375l-15.28125-15.28125h34.300781l21.847656 21.847656c2.734375 2.734376 7.167969 2.734376 9.902344 0 2.734375-2.734374 2.734375-7.164062 0-9.898437l-11.941406-11.972656h14.398437c3.867188 0 7-3.132813 7-7 0-3.867188-3.132812-7-7-7zm0 0" fill="#26a3b9"/><path d="m451.453125 309.710938c0-3.863282-3.136719-7-7-7h-8.886719l7.730469-7.730469c2.734375-2.734375 2.734375-7.167969 0-9.902344-2.734375-2.730469-7.167969-2.730469-9.902344 0l-17.625 17.628906h-24.753906l17.925781-17.921875c2.730469-2.734375 2.730469-7.167968 0-9.902344-2.734375-2.734374-7.167968-2.734374-9.902344 0l-17.917968 17.925782v-24.746094l17.625-17.625c2.734375-2.734375 2.734375-7.167969 0-9.902344-2.730469-2.734375-7.164063-2.734375-9.898438 0l-7.726562 7.730469v-8.875c0-3.863281-3.136719-7-7-7-3.867188 0-7 3.136719-7 7v8.878906l-7.730469-7.730469c-2.734375-2.734374-7.164063-2.734374-9.898437 0-2.734376 2.734376-2.734376 7.167969 0 9.902344l17.628906 17.625v24.75l-17.914063-17.929687c-1.75-1.847657-4.363281-2.597657-6.828125-1.960938-2.464844.632813-4.390625 2.558594-5.027344 5.023438-.640624 2.460937.109376 5.078125 1.957032 6.832031l17.921875 17.921875h-24.746094l-17.628906-17.628906c-2.734375-2.730469-7.164063-2.730469-9.898438 0-2.734375 2.734375-2.734375 7.167969 0 9.902343l7.726563 7.730469h-8.871094c-3.867188 0-7 3.136719-7 7 0 3.867188 3.132812 7 7 7h8.871094l-7.726563 7.730469c-2.734375 2.730469-2.734375 7.164062 0 9.898438 2.734375 2.734374 7.164063 2.734374 9.898438 0l17.628906-17.625h24.746094l-17.917969 17.921874c-2.734375 2.734376-2.734375 7.164063 0 9.898438s7.164062 2.734375 9.898438 0l17.925781-17.921875v24.746094l-17.628907 17.628906c-2.734374 2.734375-2.734374 7.164063 0 9.898437 2.734376 2.734376 7.167969 2.734376 9.898438 0l7.730469-7.726562v8.875c0 3.867188 3.132812 7 7 7 3.867187 0 7-3.132812 7-7v-8.875l7.726562 7.726562c2.734375 2.734376 7.167969 2.734376 9.902344 0 2.730469-2.734374 2.730469-7.164062 0-9.898437l-17.628906-17.628906v-24.746094l17.917969 17.921875c2.734374 2.734375 7.167968 2.734375 9.902343 0s2.734375-7.164062 0-9.898438l-17.921875-17.921874h24.75l17.625 17.625c2.734375 2.734374 7.167969 2.734374 9.902344 0 2.734375-2.734376 2.734375-7.167969 0-9.898438l-7.746094-7.726562h8.875c1.855469.003906 3.640625-.730469 4.957032-2.046876 1.3125-1.3125 2.054687-3.09375 2.054687-4.953124zm0 0" fill="#26a3b9"/><path d="m18.320312.367188h416.09375c10.121094 0 18.320313 8.203124 18.320313 18.320312s-8.199219 18.316406-18.320313 18.316406h-416.09375c-10.117187 0-18.320312-8.199218-18.320312-18.316406s8.203125-18.320312 18.320312-18.320312zm0 0" fill="#26a3b9"/><path d="m434.414062.378906h-29.644531c6.605469-.097656 12.757813 3.375 16.089844 9.082032 3.332031 5.707031 3.332031 12.765624 0 18.476562-3.332031 5.707031-9.484375 9.175781-16.089844 9.078125h29.628907c10.011718-.148437 18.050781-8.304687 18.050781-18.316406s-8.039063-18.171875-18.050781-18.320313zm0 0" fill="#168aa5"/></svg>