<svg height="446pt" viewBox="0 -44 446.34698 446" width="446pt" xmlns="http://www.w3.org/2000/svg"><path d="m88.066406 331.464844c-.179687 14.410156-11.910156 25.996094-26.320312 25.996094s-26.140625-11.585938-26.316406-25.996094c0-14.535156 26.320312-52.558594 26.320312-52.558594s26.316406 38.027344 26.316406 52.558594zm0 0" fill="#26a3b9"/><path d="m176.925781 244.980469c.117188 9.480469-4.875 18.289062-13.066406 23.066406-8.191406 4.773437-18.316406 4.773437-26.507813 0-8.1875-4.777344-13.179687-13.585937-13.0625-23.066406 0-14.535157 26.320313-52.558594 26.320313-52.558594s26.316406 38.035156 26.316406 52.558594zm0 0" fill="#26a3b9"/><path d="m250.179688 331.464844c-.175782 14.410156-11.90625 25.996094-26.316407 25.996094-14.410156 0-26.140625-11.585938-26.320312-25.996094 0-14.535156 26.320312-52.558594 26.320312-52.558594s26.316407 38.027344 26.316407 52.558594zm0 0" fill="#26a3b9"/><path d="m339.0625 244.980469c-.179688 14.410156-11.910156 25.996093-26.320312 25.996093-14.410157 0-26.140626-11.585937-26.316407-25.996093 0-14.535157 26.320313-52.558594 26.320313-52.558594s26.316406 38.035156 26.316406 52.558594zm0 0" fill="#26a3b9"/><path d="m125.972656 236.929688h49.269532c-5.75-17.175782-24.632813-44.5-24.632813-44.5s-18.890625 27.328124-24.636719 44.5zm0 0" fill="#168aa5"/><path d="m337.355469 236.929688c-5.746094-17.175782-24.632813-44.5-24.632813-44.5s-18.886718 27.324218-24.628906 44.5zm0 0" fill="#168aa5"/><path d="m412.296875 331.464844c-.179687 14.410156-11.910156 25.996094-26.316406 25.996094-14.410157 0-26.140625-11.585938-26.320313-25.996094 0-14.535156 26.320313-52.558594 26.320313-52.558594s26.316406 38.027344 26.316406 52.558594zm0 0" fill="#26a3b9"/><g fill="#168aa5"><path d="m61.746094 278.90625s-2.570313 3.710938-6.105469 9.257812c7.777344 12.210938 20.21875 33.308594 20.21875 43.300782-.003906 12.179687-8.367187 22.761718-20.214844 25.582031 7.835938 1.898437 16.109375.09375 22.4375-4.898437 6.328125-4.996094 10.007813-12.621094 9.984375-20.683594 0-14.53125-26.320312-52.558594-26.320312-52.558594zm0 0"/><path d="m150.609375 192.433594s-2.570313 3.710937-6.105469 9.257812c7.757813 12.210938 20.214844 33.289063 20.214844 43.289063.003906 12.1875-8.359375 22.777343-20.214844 25.601562 7.839844 1.902344 16.117188.09375 22.445313-4.90625 6.328125-4.996093 10.007812-12.628906 9.976562-20.695312 0-14.519531-26.316406-52.546875-26.316406-52.546875zm0 0"/><path d="m223.859375 278.90625s-2.566406 3.710938-6.101563 9.257812c7.773438 12.210938 20.214844 33.308594 20.214844 43.300782-.007812 12.179687-8.371094 22.761718-20.214844 25.582031 7.832032 1.898437 16.105469.09375 22.4375-4.898437 6.328126-4.996094 10.007813-12.621094 9.980469-20.683594.003907-14.53125-26.316406-52.558594-26.316406-52.558594zm0 0"/><path d="m312.71875 192.433594s-2.566406 3.710937-6.101562 9.257812c7.78125 12.210938 20.21875 33.289063 20.21875 43.289063.003906 12.1875-8.359376 22.777343-20.214844 25.601562 7.839844 1.910157 16.125.105469 22.457031-4.894531 6.335937-5 10.015625-12.636719 9.984375-20.707031 0-14.519531-26.34375-52.546875-26.34375-52.546875zm0 0"/><path d="m385.976562 278.90625s-2.566406 3.710938-6.105468 9.257812c7.777344 12.210938 20.21875 33.308594 20.21875 43.300782-.007813 12.183594-8.378906 22.765625-20.230469 25.582031 7.835937 1.898437 16.109375.09375 22.4375-4.898437 6.328125-4.996094 10.011719-12.621094 9.984375-20.683594.015625-14.53125-26.304688-52.558594-26.304688-52.558594zm0 0"/></g><path d="m367.734375 61.585938c-11.976563.007812-23.792969 2.722656-34.574219 7.9375-17.378906-43.160157-59.894531-70.847657-106.398437-69.285157-46.507813 1.5625-87.070313 32.039063-101.511719 76.269531-27.292969.0625-52.234375 15.457032-64.53125 39.820313-19.621094-2.929687-39.238281 5.367187-50.800781 21.492187-11.566407 16.121094-13.136719 37.359376-4.074219 55.011719 9.066406 17.648438 27.246094 28.742188 47.089844 28.734375h314.800781c43.632813-.757812 78.613281-36.347656 78.613281-79.988281 0-43.644531-34.980468-79.234375-78.613281-79.988281zm0 0" fill="#d9ecf2"/><path d="m306.144531 80.476562c7.96875-5.8125 17.246094-9.574218 27.015625-10.949218-1.332031-3.347656-2.496094-5.71875-3.460937-7.695313-21.125-43.085937-67.714844-67.535156-115.175781-60.449219 39.40625 5.78125 78.917968 38.941407 91.621093 79.09375zm0 0" fill="#bdd9e5"/><path d="m367.734375 61.585938c-5.347656.007812-10.679687.5625-15.914063 1.652343 40.140626 8.347657 67.472657 45.691407 63.292969 86.480469-4.179687 40.785156-38.519531 71.8125-79.519531 71.84375h32.140625c43.632813-.757812 78.613281-36.347656 78.613281-79.988281 0-43.644531-34.980468-79.234375-78.613281-79.988281zm0 0" fill="#bdd9e5"/><path d="m103.515625 79.917969c2.550781 18.59375 12.609375 35.332031 27.824219 46.320312 0 0-15.9375-19.683593-6.085938-49.730469-7.378906.019532-14.707031 1.167969-21.738281 3.410157zm0 0" fill="#bdd9e5"/><path d="m52.9375 115.691406c-3.1875.015625-6.367188.316406-9.5.898438 1.441406 11.097656 6.007812 21.558594 13.171875 30.160156 0 0-2.519531-17.371094 4.113281-30.402344-2.574218-.410156-5.175781-.628906-7.785156-.65625zm0 0" fill="#bdd9e5"/></svg>