<svg height="479pt" viewBox="0 -75 479.704 479" width="479pt" xmlns="http://www.w3.org/2000/svg"><path d="m201.007812.351562c-1.035156 0-2.070312 0-3.105468.035157-1.035156-.035157-2.070313-.035157-3.101563-.035157-107.585937 0-194.800781 87.214844-194.800781 194.800782h97.382812c.003907-53.800782 43.613282-97.417969 97.414063-97.433594 1.035156 0 2.070313 0 3.101563.070312 1.039062-.070312 2.074218-.070312 3.105468-.070312 53.796875.011719 97.40625 43.621094 97.417969 97.421875h97.375c-.007813-107.578125-87.214844-194.78125-194.789063-194.789063zm0 0" fill="#b41d6c"/><path d="m188.359375 97.71875c-1.035156 0-2.070313 0-3.101563.070312-1.039062-.070312-2.074218-.070312-3.105468-.070312-53.796875.015625-97.402344 43.625-97.414063 97.421875h12.648438c.019531-52.535156 41.6875-95.59375 94.191406-97.332031-1.070313-.03125-2.121094-.089844-3.21875-.089844zm0 0" fill="#93134a"/><path d="m201.007812.351562c-1.035156 0-2.070312 0-3.105468.035157-1.035156-.035157-2.070313-.035157-3.101563-.035157s-2.144531.0625-3.199219.082032c106.285157 1.75 191.53125 88.40625 191.546876 194.707031h12.648437c-.007813-107.578125-87.214844-194.78125-194.789063-194.789063zm0 0" fill="#93134a"/><path d="m315.777344 80.371094c-30.40625-30.488282-71.710938-47.597656-114.769532-47.546875-1.035156 0-2.070312 0-3.105468.035156-1.035156-.035156-2.070313-.035156-3.101563-.035156-89.640625.011719-162.304687 72.675781-162.320312 162.316406h64.902343c.011719-53.796875 43.617188-97.40625 97.414063-97.421875 1.035156 0 2.070313 0 3.101563.070312 1.039062-.070312 2.074218-.070312 3.105468-.070312 53.796875.011719 97.40625 43.621094 97.417969 97.421875h64.902344c.066406-43.0625-17.046875-84.371094-47.546875-114.769531zm0 0" fill="#ff414d"/><path d="m188.359375 97.71875c-1.035156 0-2.070313 0-3.101563.070312-1.039062-.070312-2.074218-.070312-3.105468-.070312-53.796875.015625-97.402344 43.625-97.414063 97.421875h12.648438c.019531-52.535156 41.6875-95.59375 94.191406-97.332031-1.070313-.03125-2.121094-.089844-3.21875-.089844zm0 0" fill="#d8283f"/><path d="m315.777344 80.371094c-30.40625-30.488282-71.710938-47.601563-114.769532-47.550782-1.035156 0-2.070312 0-3.105468.035157-1.035156-.035157-2.070313-.035157-3.101563-.035157s-2.144531.058594-3.199219.078126c88.359376 1.730468 159.085938 73.863281 159.078126 162.242187h12.648437c.066406-43.0625-17.050781-84.371094-47.550781-114.769531zm0 0" fill="#d8283f"/><path d="m201.007812 65.292969c-1.035156 0-2.070312 0-3.105468.035156-1.035156-.035156-2.070313-.035156-3.101563-.035156-71.71875-.011719-129.859375 58.128906-129.851562 129.847656h32.433593c.011719-53.796875 43.617188-97.40625 97.414063-97.421875 1.035156 0 2.070313 0 3.101563.070312 1.039062-.070312 2.074218-.070312 3.105468-.070312 53.796875.011719 97.40625 43.621094 97.417969 97.421875h32.433594c.007812-71.714844-58.132813-129.855469-129.847657-129.847656zm0 0" fill="#fabe02"/><path d="m201.007812 65.292969c-1.035156 0-2.070312 0-3.105468.035156-1.035156-.035156-2.070313-.035156-3.101563-.035156s-2.144531.054687-3.199219.078125c70.421876 1.738281 126.605469 59.324218 126.605469 129.769531h12.648438c.007812-71.714844-58.132813-129.855469-129.847657-129.847656zm0 0" fill="#f59a1d"/><path d="m188.359375 97.71875c-1.035156 0-2.070313 0-3.101563.070312-1.039062-.070312-2.074218-.070312-3.105468-.070312-53.796875.015625-97.402344 43.625-97.414063 97.421875h12.648438c.019531-52.535156 41.6875-95.59375 94.191406-97.332031-1.070313-.03125-2.121094-.089844-3.21875-.089844zm0 0" fill="#f59a1d"/><path d="m151.738281 214.375c-2.824219-22.097656 8.058594-43.699219 27.496094-54.582031 19.4375-10.886719 43.539063-8.875 60.90625 5.078125 19.230469-28.421875 53.332031-42.941406 87.152344-37.097656 33.816406 5.84375 61.070312 30.964843 69.648437 64.195312 21.273438-10.417969 46.761719-6.714844 64.195313 9.324219 17.433593 16.039062 23.238281 41.128906 14.625 63.199219-8.613281 22.066406-29.878907 36.589843-53.570313 36.578124h-263.734375c-22.816406.058594-41.816406-17.484374-43.578125-40.230468-1.761718-22.746094 14.308594-43.003906 36.859375-46.464844zm0 0" fill="#d9ecf2"/><g fill="#bdd9e5"><path d="m164.21875 301.074219h42.074219c-4.589844-14.460938-21.035157-38.246094-21.035157-38.246094s-16.445312 23.785156-21.039062 38.246094zm0 0"/><path d="m422.199219 186.066406c-4.671875.011719-9.324219.601563-13.851563 1.753906 28.199219 6.988282 46.75 33.925782 43.21875 62.765626-3.527344 28.839843-28.023437 50.507812-57.078125 50.488281h27.710938c31.757812 0 57.503906-25.742188 57.503906-57.503907 0-31.757812-25.746094-57.503906-57.503906-57.503906zm0 0"/><path d="m369.230469 191.972656c7.855469-3.875 16.496093-5.894531 25.253906-5.902344.230469 0 .457031.035157.6875.039063-13.464844-40.578125-54.410156-65.367187-96.605469-58.480469 34.238282 5.519532 61.96875 30.769532 70.664063 64.34375zm0 0"/><path d="m395.550781 234.320312c13.074219-12.546874 20.589844-29.796874 20.882813-47.914062-6.773438.6875-13.371094 2.570312-19.484375 5.5625 2.894531 14.027344 2.414062 28.542969-1.398438 42.351562zm0 0"/><path d="m343.292969 301.074219c-4.589844-14.460938-21.035157-38.246094-21.035157-38.246094s-16.445312 23.785156-21.039062 38.246094zm0 0"/></g><path d="m193.597656 307.246094c0 12.285156-9.960937 22.242187-22.242187 22.242187-12.285157 0-22.242188-9.957031-22.242188-22.242187 0-12.28125 22.238281-44.398438 22.238281-44.398438s22.246094 32.117188 22.246094 44.398438zm0 0" fill="#26a3b9"/><path d="m330.597656 307.246094c0 12.285156-9.960937 22.242187-22.242187 22.242187-12.285157 0-22.242188-9.957031-22.242188-22.242187 0-12.28125 22.238281-44.398438 22.238281-44.398438s22.246094 32.117188 22.246094 44.398438zm0 0" fill="#26a3b9"/><path d="m171.355469 262.828125s-2.832031 4.105469-6.460938 9.898437c6.5625 10.492188 15.761719 26.59375 15.761719 34.519532-.003906 9.796875-6.410156 18.4375-15.78125 21.28125 6.742188 2.050781 14.054688.785156 19.710938-3.410156 5.660156-4.195313 8.996093-10.824219 8.992187-17.871094.019531-12.28125-22.222656-44.417969-22.222656-44.417969zm0 0" fill="#168aa5"/><path d="m308.355469 262.828125s-2.832031 4.105469-6.460938 9.898437c6.570313 10.492188 15.78125 26.605469 15.78125 34.519532 0 9.796875-6.410156 18.4375-15.78125 21.28125 6.742188 2.050781 14.054688.785156 19.710938-3.410156 5.660156-4.195313 8.996093-10.824219 8.996093-17.871094-.003906-12.28125-22.246093-44.417969-22.246093-44.417969zm0 0" fill="#168aa5"/></svg>