<svg height="466pt" viewBox="0 0 466 466.1368" width="466pt" xmlns="http://www.w3.org/2000/svg"><path d="m466.1875 233.0625c0-7.757812-6.289062-14.046875-14.046875-14.046875h-20.476563l30.398438-30.402344c5.488281-5.484375 5.488281-14.378906 0-19.867187-5.484375-5.484375-14.382812-5.484375-19.867188 0l-50.265624 50.269531h-29.652344l30.402344-30.402344c5.484374-5.484375 5.484374-14.378906 0-19.867187-5.488282-5.484375-14.382813-5.484375-19.867188 0l-50.28125 50.28125h-27.558594c-1.476562-2.910156-3.402344-5.570313-5.710937-7.875l-7.171875-7.171875 73.257812-73.265625h71.109375c7.757813 0 14.046875-6.289063 14.046875-14.050782 0-7.757812-6.289062-14.050781-14.046875-14.050781h-43.011719l14.480469-14.476562c5.488281-5.488281 5.488281-14.382813 0-19.871094-5.484375-5.484375-14.378906-5.484375-19.867187 0l-14.480469 14.480469v-43.007813c0-7.757812-6.289063-14.050781-14.050781-14.050781-7.757813 0-14.046875 6.292969-14.046875 14.050781v71.109375l-73.25 73.246094-7.175781-7.175781c-2.308594-2.304688-4.964844-4.230469-7.875-5.707031v-27.558594l50.28125-50.28125c5.484374-5.488282 5.484374-14.382813 0-19.867188-5.488282-5.488281-14.382813-5.488281-19.871094 0l-30.398438 30.398438v-29.640625l50.28125-50.277344c5.484375-5.488281 5.484375-14.382813 0-19.871094-5.488281-5.484375-14.382812-5.484375-19.871094 0l-30.398437 30.402344v-20.457031c0-7.757813-6.289063-14.0507815-14.050781-14.0507815-7.757813 0-14.050782 6.2929685-14.050782 14.0507815v20.476562l-30.398437-30.398437c-5.484375-5.488281-14.382813-5.488281-19.867187 0-5.488282 5.484375-5.488282 14.378906 0 19.867187l50.246093 50.257813v29.644531l-30.398437-30.398438c-5.488282-5.488281-14.382813-5.488281-19.867188 0-5.488281 5.484376-5.488281 14.378907 0 19.867188l50.277344 50.28125v27.558594c-2.910156 1.476562-5.566406 3.402344-7.875 5.707031l-7.175781 7.175781-73.261719-73.25v-71.109375c0-7.757812-6.289062-14.050781-14.046875-14.050781-7.761719 0-14.050781 6.292969-14.050781 14.050781v43.011719l-14.480469-14.480469c-5.484375-5.484375-14.382813-5.488281-19.871094 0-5.488281 5.484375-5.488281 14.382813 0 19.871094l14.480469 14.476563h-43.003906c-7.761719 0-14.050782 6.292968-14.050782 14.050781 0 7.761719 6.289063 14.050781 14.050782 14.050781h71.105468l73.25 73.242188-7.171874 7.175781c-2.308594 2.304687-4.234376 4.964843-5.710938 7.875h-27.558594l-50.28125-50.28125c-5.484375-5.484375-14.378906-5.484375-19.867187 0-5.484375 5.488281-5.484375 14.382812 0 19.867187l30.402343 30.402344h-29.644531l-50.28125-50.28125c-5.484375-5.488281-14.382812-5.488281-19.867187 0-5.488282 5.488281-5.488282 14.382812 0 19.867188l30.398437 30.402343h-20.453125c-7.761718 0-14.050781 6.289063-14.050781 14.046875 0 7.761719 6.289063 14.050782 14.050781 14.050782h20.472656l-30.398437 30.402343c-5.484375 5.484375-5.484375 14.378907 0 19.867188 5.488281 5.484375 14.382813 5.484375 19.867187 0l50.261719-50.246094h29.644531l-30.402343 30.402344c-5.484375 5.484375-5.484375 14.378906 0 19.867187 5.488281 5.484375 14.382812 5.484375 19.867187 0l50.28125-50.28125h27.558594c1.476562 2.910156 3.402344 5.570313 5.707031 7.878906l7.175781 7.175782-73.25 73.257812h-71.105468c-7.761719 0-14.050782 6.292969-14.050782 14.050782 0 7.757812 6.289063 14.050781 14.050782 14.050781h43.007812l-14.480468 14.480469c-5.488282 5.484374-5.488282 14.378906 0 19.867187 5.484374 5.484375 14.382812 5.484375 19.867187 0l14.480469-14.480469v43.007813c0 7.757812 6.289062 14.050781 14.050781 14.050781 7.757813 0 14.046875-6.292969 14.046875-14.050781v-71.109375l73.25-73.246094 7.171875 7.175781c2.308594 2.304688 4.964844 4.230469 7.875 5.707031v27.5625l-50.277344 50.277344c-5.488281 5.488282-5.488281 14.382813 0 19.867188 5.484375 5.488281 14.378907 5.488281 19.867188 0l30.398437-30.398438v29.640625l-50.277344 50.28125c-5.488281 5.484375-5.488281 14.378907 0 19.867188 5.484376 5.484375 14.378907 5.484375 19.867188 0l30.398438-30.402344v20.476563c0 7.761718 6.289062 14.050781 14.050781 14.050781 7.757812 0 14.050781-6.289063 14.050781-14.050781v-20.476563l30.398438 30.402344c5.488281 5.484375 14.382812 5.484375 19.867187 0 5.488281-5.488281 5.488281-14.382813 0-19.867188l-50.242187-50.28125v-29.640625l30.398437 30.398438c5.488281 5.488281 14.382813 5.488281 19.867187 0 5.488282-5.484375 5.488282-14.378906 0-19.867188l-50.277343-50.277344v-27.5625c2.910156-1.476562 5.566406-3.402343 7.875-5.707031l7.171875-7.175781 73.265625 73.246094v71.109375c0 7.757812 6.289062 14.050781 14.046875 14.050781 7.761718 0 14.050781-6.292969 14.050781-14.050781v-43.007813l14.480469 14.480469c5.488281 5.484375 14.382812 5.484375 19.867187 0 5.488281-5.488281 5.488281-14.382813 0-19.867187l-14.480469-14.480469h43.011719c7.757813 0 14.046875-6.292969 14.046875-14.050781 0-7.757813-6.289062-14.050782-14.046875-14.050782h-71.109375l-73.25-73.246094 7.175782-7.175781c2.304687-2.308593 4.230468-4.96875 5.707031-7.878906h27.558593l50.28125 50.28125c5.484376 5.488281 14.378907 5.488281 19.867188 0 5.484375-5.484375 5.484375-14.382813 0-19.867187l-30.398438-30.402344h29.640626l50.28125 50.28125c5.488281 5.488281 14.382812 5.488281 19.867187 0 5.488281-5.484375 5.488281-14.382813 0-19.867188l-30.398437-30.398437h20.476562c7.761719-.011719 14.042969-6.3125 14.03125-14.074219zm-223.769531 23.785156c-5.128907 5.132813-13.449219 5.132813-18.578125 0l-14.496094-14.496094c-5.132812-5.132812-5.132812-13.449218 0-18.582031l14.496094-14.496093c5.128906-5.128907 13.449218-5.128907 18.578125 0l14.496093 14.496093c5.132813 5.132813 5.132813 13.449219 0 18.582031zm0 0" fill="#26a3b9"/><g fill="#168aa5"><path d="m282.097656 262.164062 7.175782-7.175781c2.308593-2.308593 4.234374-4.96875 5.710937-7.878906h-15.710937c-1.472657 2.910156-3.398438 5.570313-5.703126 7.878906l-7.175781 7.175781 73.25 73.246094h15.703125zm0 0"/><path d="m362.277344 247.109375h-15.703125l30.402343 30.402344c2.976563 2.957031 4.46875 7.097656 4.066407 11.277343-.402344 4.179688-2.660157 7.957032-6.152344 10.289063 5.996094 4.042969 14.082031 2.867187 18.683594-2.710937 4.601562-5.578126 4.214843-13.738282-.894531-18.855469zm0 0"/><path d="m424.800781 116.664062c0 7.757813-6.292969 14.046876-14.050781 14.046876h15.707031c7.757813 0 14.046875-6.289063 14.046875-14.050782 0-7.757812-6.289062-14.050781-14.046875-14.050781h-15.726562c3.730469-.003906 7.308593 1.472656 9.949219 4.109375 2.636718 2.636719 4.121093 6.214844 4.121093 9.945312zm0 0"/><path d="m347.871094 39.738281v43.011719l14.480468-14.480469c.386719-.355469.796876-.6875 1.222657-1v-27.53125c0-5.191406-2.867188-9.960937-7.449219-12.402343-4.585938-2.4375-10.140625-2.148438-14.449219.75 3.875 2.609374 6.199219 6.980468 6.195313 11.652343zm0 0"/><path d="m281.757812 4.121094c5.488282 5.488281 5.488282 14.382812 0 19.871094l-50.28125 50.269531v29.644531l15.703126-15.703125v-13.941406l50.28125-50.277344c5.078124-5.125 5.453124-13.261719.859374-18.828125-4.589843-5.566406-12.648437-6.746094-18.644531-2.734375.746094.5 1.445313 1.070313 2.082031 1.699219zm0 0"/><path d="m172.96875 4.121094 30.398438 30.402344v-15.691407l-14.695313-14.710937c-4.757813-4.75-12.21875-5.464844-17.789063-1.699219.746094.5 1.445313 1.070313 2.085938 1.699219zm0 0"/><path d="m382.222656 68.261719c5.484375 5.488281 5.484375 14.382812 0 19.867187l-14.480468 14.480469h15.703124l14.480469-14.480469c5.121094-5.113281 5.515625-13.28125.910157-18.867187-4.605469-5.582031-12.699219-6.753907-18.695313-2.703125.746094.5 1.445313 1.070312 2.082031 1.703125zm0 0"/><path d="m231.476562 14.058594v20.476562l15.703126-15.703125v-4.773437c0-5.195313-2.863282-9.964844-7.449219-12.40625-4.585938-2.4375-10.144531-2.148438-14.453125.753906 3.878906 2.609375 6.199218 6.980469 6.199218 11.652344zm0 0"/><path d="m446.367188 168.730469c5.484374 5.488281 5.484374 14.382812 0 19.867187l-30.398438 30.402344h15.703125l30.398437-30.402344c5.121094-5.113281 5.515626-13.285156.910157-18.867187-4.605469-5.585938-12.699219-6.753907-18.699219-2.703125.75.5 1.449219 1.070312 2.085938 1.703125zm0 0"/><path d="m188.671875 392.621094 14.707031-14.707032v-15.703124l-30.398437 30.398437c-.640625.632813-1.339844 1.203125-2.085938 1.703125 5.566407 3.761719 13.019531 3.054688 17.777344-1.691406zm0 0"/><path d="m266.394531 203.960938 7.171875 7.175781c2.308594 2.304687 4.234375 4.964843 5.707032 7.875h15.707031c-1.476563-2.910157-3.402344-5.570313-5.710938-7.875l-7.171875-7.175781 73.25-73.246094h-15.703125zm0 0"/><path d="m436.429688 247.109375h15.707031c7.757812 0 14.046875-6.289063 14.046875-14.046875 0-7.761719-6.289063-14.050781-14.046875-14.050781h-15.707031c7.761718 0 14.050781 6.289062 14.050781 14.050781 0 7.757812-6.289063 14.046875-14.050781 14.046875zm0 0"/><path d="m223.84375 256.847656-14.496094-14.496094c-5.132812-5.132812-5.132812-13.449218 0-18.582031l14.496094-14.496093c.449219-.425782.929688-.816407 1.433594-1.175782-5.207032-3.929687-12.515625-3.429687-17.136719 1.175782l-14.496094 14.496093c-5.132812 5.132813-5.132812 13.449219 0 18.582031l14.496094 14.496094c4.621094 4.605469 11.929687 5.105469 17.136719 1.175782-.503906-.359376-.984375-.75-1.433594-1.175782zm0 0"/><path d="m374.902344 167.03125c3.492187 2.332031 5.75 6.113281 6.15625 10.292969.402344 4.179687-1.089844 8.320312-4.070313 11.277343l-30.402343 30.402344h15.707031l30.398437-30.402344c5.121094-5.113281 5.511719-13.285156.90625-18.867187-4.601562-5.585937-12.695312-6.753906-18.695312-2.703125zm0 0"/><path d="m170.882812 71.804688c.746094.496093 1.445313 1.066406 2.085938 1.699218l30.398438 30.398438v-15.691406l-14.695313-14.707032c-4.757813-4.753906-12.21875-5.46875-17.789063-1.699218zm0 0"/><path d="m231.476562 171.214844c2.910157 1.476562 5.566407 3.402344 7.875 5.707031l7.175782 7.175781 7.804687-7.804687c-2.128906-2.023438-4.535156-3.734375-7.144531-5.082031v-27.558594l50.28125-50.28125c5.105469-5.117188 5.496094-13.277344.894531-18.859375-4.601562-5.578125-12.6875-6.75-18.683593-2.707031 3.488281 2.332031 5.746093 6.109374 6.152343 10.289062.402344 4.179688-1.089843 8.316406-4.070312 11.277344l-50.277344 50.28125zm0 0"/><path d="m247.179688 391.863281v-13.941406l-15.703126-15.703125v29.640625l50.277344 50.28125c2.980469 2.957031 4.476563 7.097656 4.070313 11.277344-.402344 4.179687-2.660157 7.957031-6.152344 10.292969 5.996094 4.050781 14.089844 2.878906 18.695313-2.703126 4.605468-5.585937 4.210937-13.753906-.90625-18.867187zm0 0"/><path d="m203.378906 431.589844-30.398437 30.402344c-.640625.628906-1.339844 1.199218-2.085938 1.699218 5.574219 3.765625 13.03125 3.050782 17.789063-1.699218l14.707031-14.710938zm0 0"/><path d="m231.476562 431.589844v20.476562c0 4.671875-2.320312 9.042969-6.199218 11.652344 4.308594 2.898438 9.867187 3.1875 14.449218.75 4.585938-2.441406 7.449219-7.207031 7.453126-12.402344v-4.773437zm0 0"/><path d="m362.351562 397.863281-14.480468-14.480469v43.007813c.003906 4.671875-2.320313 9.042969-6.195313 11.652344 4.308594 2.898437 9.863281 3.1875 14.449219.75 4.582031-2.441407 7.449219-7.210938 7.449219-12.402344v-27.527344c-.425781-.308593-.835938-.644531-1.222657-1zm0 0"/><path d="m247.179688 322.476562v-27.5625c2.613281-1.347656 5.019531-3.058593 7.152343-5.082031l-7.796875-7.796875-7.171875 7.175782c-2.308593 2.304687-4.964843 4.230468-7.875 5.707031v27.5625l50.277344 50.277343c2.980469 2.960938 4.472656 7.101563 4.070313 11.277344-.40625 4.179688-2.664063 7.957032-6.152344 10.292969 5.996094 4.039063 14.082031 2.867187 18.683594-2.710937 4.601562-5.578126 4.214843-13.742188-.894532-18.859376zm0 0"/><path d="m383.445312 363.511719h-15.703124l14.480468 14.480469c2.980469 2.957031 4.472656 7.097656 4.070313 11.277343-.402344 4.179688-2.664063 7.960938-6.152344 10.292969 5.996094 4.050781 14.089844 2.882812 18.695313-2.703125 4.605468-5.582031 4.210937-13.753906-.910157-18.867187zm0 0"/><path d="m431.660156 247.109375h-15.703125l30.398438 30.402344c2.976562 2.957031 4.472656 7.097656 4.066406 11.277343-.402344 4.179688-2.660156 7.957032-6.152344 10.289063 6 4.042969 14.082031 2.867187 18.683594-2.710937 4.601563-5.578126 4.214844-13.738282-.894531-18.855469zm0 0"/><path d="m426.457031 335.410156h-15.726562c7.761719 0 14.050781 6.292969 14.050781 14.050782 0 7.757812-6.289062 14.050781-14.050781 14.050781h15.703125c7.761718 0 14.050781-6.292969 14.050781-14.050781 0-7.757813-6.289063-14.050782-14.050781-14.050782zm0 0"/><path d="m115.078125 39.738281v71.109375l73.253906 73.246094 7.175781-7.175781c.230469-.230469.496094-.398438.730469-.625l-65.457031-65.445313v-71.109375c0-5.191406-2.863281-9.960937-7.449219-12.402343-4.585937-2.4375-10.140625-2.148438-14.449219.75 3.875 2.609374 6.199219 6.980468 6.195313 11.652343zm0 0"/><path d="m93.4375 297.394531 50.28125-50.28125h-15.699219l-50.28125 50.28125c-.636719.632813-1.335937 1.203125-2.082031 1.699219 5.570312 3.765625 13.027344 3.050781 17.78125-1.699219zm0 0"/><path d="m143.71875 219.015625-50.28125-50.28125c-4.757812-4.75-12.214844-5.464844-17.785156-1.699219.746094.5 1.445312 1.066406 2.082031 1.699219l50.28125 50.28125zm0 0"/><path d="m8.355469 168.730469 50.28125 50.28125h15.695312l-50.28125-50.28125c-4.757812-4.75-12.214843-5.464844-17.789062-1.699219.75.496094 1.453125 1.066406 2.09375 1.699219zm0 0"/><path d="m86.984375 383.378906-14.480469 14.480469c-.640625.632813-1.335937 1.199219-2.085937 1.699219 5.082031 3.410156 11.789062 3.128906 16.5625-.699219zm0 0"/><path d="m24.058594 297.394531 50.273437-50.285156h-15.691406l-50.285156 50.285156c-.640625.632813-1.335938 1.203125-2.085938 1.699219 5.574219 3.769531 13.03125 3.054688 17.789063-1.699219zm0 0"/><path d="m195.503906 289.207031-7.171875-7.175781-73.253906 73.246094v71.109375c.003906 4.671875-2.320313 9.042969-6.195313 11.652343 4.308594 2.898438 9.863282 3.1875 14.449219.75 4.585938-2.441406 7.449219-7.210937 7.449219-12.402343v-71.109375l65.453125-65.445313c-.234375-.226562-.503906-.394531-.730469-.625zm0 0"/><path d="m72.503906 68.261719 14.480469 14.480469v-15.480469c-4.777344-3.828125-11.484375-4.109375-16.566406-.699219.75.5 1.445312 1.066406 2.085937 1.699219zm0 0"/></g></svg>