<svg height="430pt" viewBox="0 -3 430.25384 430" width="430pt" xmlns="http://www.w3.org/2000/svg"><path d="m43.511719 103.761719c-3.347657-26.066407 9.480469-51.550781 32.410156-64.390625s51.363281-10.457032 71.835937 6.015625c22.671876-33.523438 62.890626-50.648438 102.773438-43.757813s72.023438 36.515625 82.132812 75.707032c25.085938-12.285157 55.144532-7.921876 75.703126 10.992187 20.554687 18.914063 27.40625 48.503906 17.246093 74.527344-10.15625 26.023437-35.238281 43.148437-63.175781 43.132812h-310.996094c-26.863281.011719-49.210937-20.660156-51.289062-47.441406-2.078125-26.785156 16.8125-50.65625 43.359375-54.785156zm0 0" fill="#26a3b9"/><path d="m205.46875 202.125c.082031-8.863281-4.855469-17.007812-12.753906-21.03125-7.894532-4.023438-17.386719-3.230469-24.507813 2.042969-7.121093 5.277343-10.644531 14.125-9.097656 22.851562h46c.226563-1.277343.347656-2.570312.359375-3.863281zm0 0" fill="#168aa5"/><path d="m303.417969 77.335938c8.472656-4.167969 17.726562-6.511719 27.160156-6.878907-15.695313-47.304687-63.09375-76.5-112.398437-69.234375 41.171874 5.832032 74.800781 35.859375 85.238281 76.113282zm0 0" fill="#168aa5"/><path d="m362.4375 70.375c-4.910156.007812-9.800781.554688-14.589844 1.632812 33.824219 7.425782 56.617188 39.152344 52.855469 73.578126-3.765625 34.425781-32.875 60.480468-67.503906 60.421874h29.238281c37.160156-.402343 67.066406-30.640624 67.066406-67.800781 0-37.160156-29.90625-67.394531-67.066406-67.800781zm0 0" fill="#168aa5"/><path d="m331.019531 127.277344c12.761719-16.753906 21.703125-36.09375 26.199219-56.667969-8.539062.667969-16.871094 2.953125-24.554688 6.730469 3.410157 16.539062 2.847657 33.65625-1.644531 49.9375zm0 0" fill="#168aa5"/><path d="m81.816406 252.976562c.003906 10.765626-8.722656 19.496094-19.488281 19.5-10.765625.003907-19.496094-8.722656-19.5-19.488281-.007813-10.765625 8.714844-19.496093 19.480469-19.503906 10.773437-.007813 19.507812 8.722656 19.507812 19.492187zm23.105469 132.613282c-10.765625 0-19.496094 8.726562-19.496094 19.496094 0 10.765624 8.730469 19.492187 19.496094 19.492187 10.769531 0 19.496094-8.726563 19.496094-19.492187 0-10.769532-8.726563-19.496094-19.496094-19.496094zm161.964844-34.9375c-10.769531 0-19.496094 8.726562-19.496094 19.496094 0 10.765624 8.726563 19.496093 19.496094 19.496093 10.765625 0 19.496093-8.730469 19.496093-19.496093 0-10.769532-8.730468-19.496094-19.496093-19.496094zm27.824219-122.601563c-13.765626 0-24.925782 11.160157-24.925782 24.925781 0 13.765626 11.160156 24.921876 24.925782 24.921876 13.765624 0 24.921874-11.15625 24.921874-24.921876 0-13.765624-11.15625-24.925781-24.921874-24.925781zm-128.230469-49.296875c-12.898438 0-23.359375 10.457032-23.359375 23.359375 0 12.898438 10.460937 23.359375 23.359375 23.359375 12.902343 0 23.363281-10.460937 23.363281-23.359375 0-12.902343-10.460938-23.359375-23.363281-23.359375zm1.566406 127.726563c-7.769531 0-14.070313 6.296875-14.070313 14.066406s6.300782 14.070313 14.070313 14.070313 14.066406-6.300782 14.066406-14.070313c-.007812-7.765625-6.304687-14.054687-14.070312-14.050781zm205.277344-4.460938c-7.769531 0-14.070313 6.300781-14.070313 14.070313 0 7.769531 6.300782 14.066406 14.070313 14.066406s14.066406-6.296875 14.066406-14.066406c-.007813-7.765625-6.304687-14.054688-14.066406-14.054688zm0 0" fill="#d9ecf2"/><g fill="#bdd9e5"><path d="m168.042969 306.496094c-2.675781.003906-5.292969.777344-7.539063 2.222656 4.066406 2.566406 6.53125 7.035156 6.53125 11.84375 0 4.804688-2.464844 9.277344-6.53125 11.839844 5.046875 3.214844 11.578125 2.882812 16.269532-.832032 4.695312-3.714843 6.523437-9.992187 4.554687-15.644531-1.96875-5.652343-7.300781-9.4375-13.285156-9.433593zm0 0"/><path d="m81.816406 252.976562c.003906-6.527343-3.261718-12.621093-8.699218-16.234374-5.433594-3.617188-12.316407-4.269532-18.335938-1.746094 7.242188 3.039062 11.953125 10.125 11.953125 17.976562 0 7.855469-4.710937 14.941406-11.953125 17.980469 6.019531 2.523437 12.902344 1.867187 18.335938-1.746094 5.4375-3.613281 8.703124-9.707031 8.699218-16.234375zm0 0"/><path d="m104.921875 385.589844c-2.589844-.003906-5.152344.511718-7.539063 1.515625 7.242188 3.035156 11.953126 10.125 11.953126 17.976562 0 7.851563-4.710938 14.941407-11.953126 17.976563 7.28125 3.058594 15.6875 1.421875 21.289063-4.148438 5.601563-5.566406 7.292969-13.960937 4.28125-21.261718-3.015625-7.300782-10.132813-12.0625-18.03125-12.058594zm0 0"/><path d="m166.480469 178.753906c-2.5625.003906-5.113281.429688-7.539063 1.265625 9.457032 3.222657 15.8125 12.101563 15.8125 22.089844s-6.355468 18.871094-15.8125 22.089844c8.769532 3 18.484375.527343 24.753906-6.296875 6.269532-6.824219 7.910157-16.710938 4.179688-25.195313s-12.125-13.960937-21.394531-13.953125zm0 0"/><path d="m266.886719 350.652344c-2.589844-.003906-5.152344.511718-7.539063 1.515625 7.242188 3.039062 11.953125 10.125 11.953125 17.976562 0 7.855469-4.710937 14.941407-11.953125 17.980469 7.28125 3.054688 15.6875 1.417969 21.289063-4.148438 5.601562-5.566406 7.292969-13.964843 4.277343-21.265624-3.011718-7.300782-10.128906-12.0625-18.027343-12.058594zm0 0"/><path d="m373.324219 302.035156c-2.675781.003906-5.292969.777344-7.542969 2.226563 4.066406 2.5625 6.535156 7.035156 6.535156 11.839843 0 4.808594-2.46875 9.277344-6.535156 11.84375 5.050781 3.214844 11.578125 2.878907 16.273438-.835937 4.691406-3.710937 6.519531-9.992187 4.550781-15.644531-1.964844-5.652344-7.296875-9.4375-13.28125-9.433594zm0 0"/><path d="m294.710938 228.050781c-2.558594 0-5.101563.394531-7.539063 1.167969 10.347656 3.289062 17.378906 12.898438 17.378906 23.757812 0 10.859376-7.03125 20.472657-17.378906 23.757813 9.359375 2.96875 19.589844.160156 26.128906-7.167969 6.535157-7.328125 8.160157-17.8125 4.144531-26.777344-4.011718-8.960937-12.914062-14.730468-22.734374-14.738281zm0 0"/></g></svg>