<svg height="477pt" viewBox="-47 0 477 477.02443" width="477pt" xmlns="http://www.w3.org/2000/svg"><path d="m224.460938 68.324219c31.292968 31.292969 31.292968 82.027343 0 113.320312-31.292969 31.289063-82.027344 31.289063-113.320313 0-31.289063-31.292969-31.289063-82.027343 0-113.320312 31.292969-31.292969 82.027344-31.292969 113.320313 0zm0 0" fill="#fabe02"/><path d="m247.664062 130.285156c-21.914062-21.078125-51.992187-31.457031-82.242187-28.375-30.253906 3.082032-57.617187 19.308594-74.832031 44.375 10.34375 37.703125 46.410156 62.417969 85.304687 58.457032 38.898438-3.960938 69.242188-35.441407 71.769531-74.457032zm0 0" fill="#f59a1d"/><path d="m224.464844 68.324219c-18.304688-18.304688-44.34375-26.617188-69.867188-22.304688 38.632813 6.394531 66.96875 39.804688 66.96875 78.96875 0 39.160157-28.335937 72.570313-66.96875 78.964844 34.359375 5.78125 68.511719-11.320313 84.46875-42.296875 15.957032-30.972656 10.050782-68.710938-14.601562-93.332031zm0 0" fill="#f59a1d"/><g fill="#fabe02"><path d="m95.632812 59.816406c-1.855468.003906-3.636718-.734375-4.949218-2.050781l-14.195313-14.195313c-2.734375-2.734374-2.734375-7.167968 0-9.902343s7.167969-2.734375 9.898438 0l14.199219 14.195312c2 2.003907 2.597656 5.011719 1.515624 7.628907-1.085937 2.613281-3.636718 4.320312-6.464843 4.320312zm0 0"/><path d="m69.222656 105.574219c-.613281 0-1.222656-.082031-1.8125-.242188l-19.394531-5.199219c-3.734375-1-5.949219-4.839843-4.949219-8.574218s4.839844-5.949219 8.574219-4.949219l19.390625 5.199219c3.390625.910156 5.582031 4.191406 5.125 7.671875s-3.421875 6.082031-6.933594 6.089843zm0 0"/><path d="m49.824219 163.597656c-3.511719-.003906-6.472657-2.609375-6.929688-6.089844-.457031-3.480468 1.730469-6.761718 5.121094-7.671874l19.394531-5.199219c3.734375-1 7.570313 1.214843 8.570313 4.949219 1.003906 3.734374-1.214844 7.574218-4.949219 8.574218l-19.390625 5.199219c-.59375.160156-1.203125.238281-1.816406.238281zm0 0"/><path d="m194.21875 33.40625c-2.171875 0-4.222656-1.011719-5.546875-2.734375-1.324219-1.726563-1.773437-3.964844-1.214844-6.066406l5.199219-19.394531c1-3.734376 4.839844-5.949219 8.574219-4.949219s5.949219 4.839843 4.949219 8.574219l-5.199219 19.394531c-.828125 3.050781-3.597657 5.171875-6.761719 5.175781zm0 0"/><path d="m141.382812 33.40625c-3.167968-.007812-5.9375-2.140625-6.753906-5.203125l-5.199218-19.390625c-1.003907-3.734375 1.214843-7.574219 4.949218-8.574219s7.574219 1.214844 8.574219 4.949219l5.199219 19.394531c.558594 2.097657.109375 4.339844-1.214844 6.0625-1.324219 1.726563-3.375 2.734375-5.550781 2.734375zm0 0"/><path d="m254.164062 218.347656c-1.855468.003906-3.636718-.734375-4.949218-2.050781l-14.199219-14.179687c-2.734375-2.734376-2.734375-7.167969 0-9.902344 2.734375-2.730469 7.167969-2.730469 9.902344 0l14.199219 14.199218c2 2 2.597656 5.011719 1.515624 7.625-1.082031 2.613282-3.632812 4.320313-6.464843 4.320313zm0 0"/><path d="m239.964844 59.816406c-2.832032 0-5.382813-1.707031-6.464844-4.320312-1.082031-2.617188-.484375-5.625 1.515625-7.628906l14.199219-14.195313c2.734375-2.734375 7.167968-2.734375 9.902344 0 2.734374 2.734375 2.734374 7.167969 0 9.902344l-14.199219 14.195312c-1.3125 1.3125-3.097657 2.050781-4.953125 2.046875zm0 0"/><path d="m81.4375 218.347656c-2.832031 0-5.382812-1.707031-6.464844-4.320312-1.082031-2.617188-.484375-5.625 1.515625-7.625l14.195313-14.199219c2.738281-2.730469 7.171875-2.726563 9.90625.007813 2.730468 2.738281 2.726562 7.171874-.007813 9.90625l-14.199219 14.195312c-1.3125 1.308594-3.09375 2.042969-4.945312 2.035156zm0 0"/><path d="m285.777344 163.597656c-.613282 0-1.226563-.082031-1.816406-.242187l-19.394532-5.199219c-3.734375-1-5.949218-4.839844-4.949218-8.574219s4.839843-5.949219 8.574218-4.949219l19.394532 5.199219c3.386718.910157 5.578124 4.191407 5.121093 7.671875-.457031 3.480469-3.421875 6.085938-6.929687 6.089844zm0 0"/><path d="m266.378906 105.574219c-3.507812-.007813-6.472656-2.609375-6.929687-6.089844s1.734375-6.761719 5.121093-7.671875l19.394532-5.199219c3.734375-1 7.574218 1.214844 8.574218 4.949219s-1.214843 7.574219-4.949218 8.574219l-19.394532 5.199219c-.589843.160156-1.203124.238281-1.816406.238281zm0 0"/><path d="m136.191406 249.957031c-.613281 0-1.222656-.082031-1.816406-.242187-3.734375-1-5.949219-4.839844-4.945312-8.574219l5.199218-19.390625c1-3.734375 4.839844-5.953125 8.574219-4.953125 3.734375 1.003906 5.949219 4.839844 4.949219 8.574219l-5.199219 19.394531c-.820313 3.058594-3.59375 5.1875-6.761719 5.191406zm0 0"/><path d="m199.410156 249.957031c-3.171875-.007812-5.941406-2.140625-6.757812-5.199219l-5.199219-19.394531c-1-3.734375 1.214844-7.570312 4.949219-8.574219 3.734375-1 7.574218 1.21875 8.574218 4.953126l5.199219 19.390624c.558594 2.101563.109375 4.34375-1.214843 6.066407-1.324219 1.722656-3.375 2.734375-5.546876 2.734375zm0 0"/></g><path d="m312.933594 191.535156c-12.992188.003906-25.726563 3.621094-36.777344 10.453125-12.773438-47.980469-57.773438-80.164062-107.308594-76.75-49.53125 3.417969-89.6875 41.472657-95.757812 90.75-22.136719-5.421875-45.414063 2.378907-59.808594 20.046875-14.394531 17.664063-17.335938 42.039063-7.554688 62.621094s30.535157 33.695312 53.324219 33.691406h253.882813c38.878906 0 70.398437-31.519531 70.398437-70.398437 0-38.882813-31.519531-70.402344-70.398437-70.402344zm0 0" fill="#d9ecf2"/><path d="m273.265625 192.917969c-.261719-.714844-.589844-1.394531-.867187-2.101563-.585938-1.484375-1.167969-2.976562-1.816407-4.425781-.691406-1.539063-1.457031-3.039063-2.21875-4.539063-.359375-.707031-.695312-1.425781-1.070312-2.128906-1.035157-1.929687-2.152344-3.808594-3.304688-5.667968-.144531-.230469-.269531-.472657-.398437-.707032-18.945313-30.109375-52.027344-48.378906-87.601563-48.375-4.4375.007813-8.871093.292969-13.273437.863282 23.765625 2.921874 45.78125 14 62.289062 31.34375 15.511719 16.996093 23.234375 39.6875 21.3125 62.617187-.242187 3.863281-.242187 7.738281 0 11.601563.089844 1.675781 1.359375 3.054687 3.027344 3.273437s3.253906-.78125 3.773438-2.378906c3.734374-12.582031 11.941406-23.363281 23.074218-30.316407-.820312-3.09375-1.832031-6.101562-2.925781-9.0625zm0 0" fill="#bdd9e5"/><path d="m312.933594 191.535156c-4.355469.011719-8.699219.429688-12.972656 1.253906 35.714843 6.714844 60.445312 39.523438 57.070312 75.707032-3.378906 36.1875-33.75 63.851562-70.09375 63.839844h26c38.878906 0 70.398438-31.519532 70.398438-70.398438 0-38.882812-31.519532-70.402344-70.398438-70.402344zm0 0" fill="#bdd9e5"/><path d="m247.929688 300.125c0 7.226562-5.859376 13.082031-13.085938 13.082031s-13.082031-5.855469-13.082031-13.082031 5.855469-13.085938 13.082031-13.085938 13.085938 5.859376 13.085938 13.085938zm0 0" fill="#bdd9e5"/><path d="m168.804688 325.316406h-11.800782l8.476563-8.472656c2.734375-2.734375 2.734375-7.164062 0-9.898438-2.734375-2.734374-7.167969-2.734374-9.898438 0l-18.375 18.371094h-15.253906v-15.234375l18.371094-18.367187c2.734375-2.730469 2.734375-7.164063 0-9.898438s-7.167969-2.734375-9.898438 0l-8.472656 8.476563v-11.800781c0-3.867188-3.136719-7-7-7-3.867187 0-7 3.132812-7 7v11.800781l-8.476563-8.476563c-2.746093-2.652344-7.113281-2.613281-9.8125.085938-2.699218 2.703125-2.738281 7.066406-.082031 9.8125l18.375 18.378906v15.222656h-15.261719l-18.375-18.359375c-2.734374-2.734375-7.167968-2.734375-9.898437 0-2.734375 2.734375-2.734375 7.164063 0 9.898438l8.476563 8.460937h-11.796876c-3.867187 0-7 3.132813-7 7 0 3.867188 3.132813 7 7 7h11.796876l-8.472657 8.476563c-2.742187 2.730469-2.75 7.167969-.015625 9.910156 2.734375 2.738281 7.167969 2.746094 9.910156.011719l18.375-18.398438h15.257813v15.257813l-18.375 18.375c-2.734375 2.734375-2.734375 7.164062 0 9.898437 2.730469 2.734375 7.164063 2.734375 9.898437 0l8.476563-8.476562v11.800781c0 3.867187 3.132813 7 7 7 3.863281 0 7-3.132813 7-7v-11.800781l8.472656 8.476562c2.730469 2.734375 7.164063 2.734375 9.898438 0s2.734375-7.164062 0-9.898437l-18.371094-18.375v-15.257813h15.25l18.378906 18.398438c2.730469 2.734375 7.164063 2.734375 9.898438 0 2.734375-2.730469 2.734375-7.164063 0-9.898438l-8.476563-8.5h11.800782c3.867187 0 7-3.132812 7-7 0-3.867187-3.132813-7-7-7zm0 0" fill="#26a3b9"/><path d="m114.269531 278.480469v11.800781l7.683594-7.683594v-4.117187c0-2.574219-1.410156-4.941407-3.675781-6.160157-2.265625-1.222656-5.015625-1.101562-7.164063.316407 1.96875 1.289062 3.15625 3.488281 3.15625 5.84375zm0 0" fill="#168aa5"/><path d="m66.636719 306.957031 18.375 18.359375h7.683593l-18.375-18.359375c-2.347656-2.351562-6.023437-2.730469-8.800781-.90625.402344.265625.777344.566407 1.117188.90625zm0 0" fill="#168aa5"/><path d="m91.792969 281.804688 8.476562 8.476562v-7.679688l-.800781-.800781c-2.347656-2.351562-6.023438-2.730469-8.800781-.902343.40625.261718.78125.566406 1.125.90625zm0 0" fill="#168aa5"/><path d="m157.796875 306.960938c1.3125 1.3125 2.050781 3.09375 2.050781 4.949218 0 1.855469-.738281 3.636719-2.050781 4.949219l-8.476563 8.457031h7.683594l8.476563-8.472656c2.550781-2.535156 2.761719-6.59375.488281-9.382812-2.273438-2.789063-6.289062-3.402344-9.289062-1.417969.402343.269531.777343.574219 1.117187.917969zm0 0" fill="#168aa5"/><path d="m132.640625 281.804688c1.3125 1.3125 2.050781 3.09375 2.050781 4.949218 0 1.859375-.738281 3.636719-2.050781 4.949219l-18.371094 18.378906v15.234375h7.683594v-15.234375l18.371094-18.367187c2.550781-2.535156 2.761719-6.59375.488281-9.382813-2.269531-2.789062-6.289062-3.402343-9.289062-1.414062.402343.257812.777343.554687 1.117187.886719zm0 0" fill="#168aa5"/><path d="m121.953125 354.59375v-15.277344h-7.683594v15.261719l18.371094 18.375c1.488281 1.488281 2.226563 3.570313 2.011719 5.664063s-1.363282 3.980468-3.121094 5.136718c3 1.984375 7.019531 1.371094 9.289062-1.417968 2.273438-2.789063 2.0625-6.847657-.488281-9.382813zm0 0" fill="#168aa5"/><path d="m168.804688 325.316406h-7.683594c3.863281 0 7 3.132813 7 7 0 3.867188-3.136719 7-7 7h7.683594c3.867187 0 7-3.132812 7-7 0-3.867187-3.132813-7-7-7zm0 0" fill="#168aa5"/><path d="m157.003906 339.316406h-7.683594l8.476563 8.476563c1.488281 1.488281 2.226563 3.570312 2.011719 5.664062s-1.363282 3.980469-3.121094 5.136719c3 1.984375 7.019531 1.371094 9.289062-1.417969 2.273438-2.789062 2.0625-6.847656-.488281-9.382812zm0 0" fill="#168aa5"/><path d="m100.269531 374.386719-8.476562 8.476562c-.339844.339844-.710938.640625-1.109375.90625 2.777344 1.824219 6.453125 1.445313 8.800781-.90625l.800781-.796875zm0 0" fill="#168aa5"/><path d="m114.269531 374.386719v11.800781c0 2.355469-1.191406 4.554688-3.160156 5.84375 2.148437 1.417969 4.898437 1.539062 7.164063.316406 2.265624-1.21875 3.675781-3.585937 3.675781-6.160156v-4.109375zm0 0" fill="#168aa5"/><path d="m85.011719 339.316406-18.375 18.398438c-.339844.339844-.710938.644531-1.109375.90625 2.777344 1.824218 6.453125 1.445312 8.800781-.90625l18.367187-18.398438zm0 0" fill="#168aa5"/><path d="m238.808594 300.125c0 7.226562-5.859375 13.082031-13.085938 13.082031-7.222656 0-13.082031-5.855469-13.082031-13.082031s5.859375-13.085938 13.082031-13.085938c7.226563 0 13.085938 5.859376 13.085938 13.085938zm0 0" fill="#26a3b9"/><path d="m225.722656 287.039062c-1.160156.015626-2.316406.191407-3.429687.511719 5.6875 1.527344 9.644531 6.683594 9.644531 12.574219s-3.957031 11.046875-9.644531 12.570312c4.902343 1.339844 10.136719-.292968 13.414062-4.175781 3.28125-3.882812 4.007813-9.316406 1.863281-13.925781-2.140624-4.609375-6.761718-7.558594-11.847656-7.558594zm0 0" fill="#168aa5"/><path d="m362.832031 377.914062c0 9.664063-7.835937 17.503907-17.503906 17.503907s-17.503906-7.839844-17.503906-17.503907c0-9.667968 7.835937-17.503906 17.503906-17.503906s17.503906 7.835938 17.503906 17.503906zm-308.511719 41.089844c-7.976562 0-14.445312 6.46875-14.445312 14.445313 0 7.976562 6.46875 14.441406 14.445312 14.441406 7.976563 0 14.445313-6.464844 14.445313-14.441406 0-7.976563-6.46875-14.445313-14.445313-14.445313zm0 0" fill="#d9ecf2"/><path d="m54.320312 419.003906c-1.652343.015625-3.292968.316406-4.84375.894532 5.75 2.019531 9.597657 7.453124 9.597657 13.546874 0 6.097657-3.847657 11.527344-9.597657 13.550782 5.390626 1.875 11.382813.390625 15.273438-3.789063 3.890625-4.179687 4.941406-10.265625 2.683594-15.507812-2.261719-5.246094-7.402344-8.65625-13.113282-8.703125zm0 0" fill="#bdd9e5"/><path d="m345.328125 360.410156c-1.644531.023438-3.273437.277344-4.84375.761719 7.492187 2.117187 12.664063 8.957031 12.664063 16.742187 0 7.785157-5.171876 14.621094-12.664063 16.738282 1.570313.484375 3.199219.742187 4.84375.765625 9.667969 0 17.503906-7.839844 17.503906-17.503907 0-9.667968-7.835937-17.503906-17.503906-17.503906zm0 0" fill="#bdd9e5"/><path d="m292.96875 404.117188h-14.503906l10.398437-10.402344c2.734375-2.730469 2.734375-7.164063 0-9.898438s-7.164062-2.734375-9.898437 0l-20.296875 20.300782h-5.867188c-2.039062-5.433594-6.324219-9.71875-11.757812-11.757813v-5.867187l20.296875-20.296876c2.734375-2.734374 2.734375-7.164062 0-9.898437s-7.164063-2.734375-9.898438 0l-10.402344 10.398437v-14.523437c0-3.867187-3.132812-7-7-7-3.863281 0-7 3.132813-7 7v14.503906l-10.398437-10.398437c-2.734375-2.734375-7.167969-2.734375-9.902344 0-2.730469 2.734375-2.730469 7.164062 0 9.898437l20.296875 20.296875v5.867188c-5.433594 2.039062-9.71875 6.324218-11.753906 11.757812h-5.859375l-20.296875-20.300781c-2.734375-2.734375-7.167969-2.734375-9.902344 0-2.730468 2.734375-2.730468 7.164063 0 9.898437l10.402344 10.402344h-14.503906c-3.867188 0-7 3.132813-7 7 0 3.863282 3.132812 7 7 7h14.5l-10.402344 10.398438c-2.730469 2.734375-2.730469 7.167968 0 9.902344 2.734375 2.730468 7.167969 2.730468 9.902344 0l20.296875-20.296876h5.867187c2.035156 5.433594 6.324219 9.71875 11.753906 11.753907v5.859375l-20.292968 20.300781c-2.734375 2.734375-2.734375 7.167969 0 9.902344 2.730468 2.730469 7.164062 2.730469 9.898437 0l10.398438-10.402344v14.503906c0 3.867188 3.136719 7 7 7 3.867187 0 7-3.132812 7-7v-14.503906l10.402343 10.402344c2.734376 2.730469 7.164063 2.730469 9.898438 0 2.734375-2.734375 2.734375-7.167969 0-9.902344l-20.300781-20.300781v-5.863282c5.433593-2.035156 9.71875-6.320312 11.757812-11.753906h5.867188l20.296875 20.292969c2.761718 2.515625 7.011718 2.417969 9.65625-.21875 2.644531-2.636719 2.75-6.886719.242187-9.65625l-10.398437-10.398437h14.503906c3.867188 0 7-3.132813 7-7 0-3.867188-3.132812-7-7-7zm-58.925781 13.082031c-3.359375 0-6.082031-2.722657-6.082031-6.082031 0-3.359376 2.722656-6.085938 6.082031-6.085938 3.363281 0 6.085937 2.726562 6.085937 6.085938-.015625 3.351562-2.734375 6.0625-6.085937 6.066406zm0 0" fill="#26a3b9"/><path d="m208.863281 356.277344 10.402344 10.398437v-7.757812l-2.632813-2.632813c-2.359374-2.359375-6.058593-2.726562-8.832031-.871094.382813.25.738281.539063 1.0625.863282zm0 0" fill="#168aa5"/><path d="m181.355469 383.796875 20.308593 20.320313h5.867188c.167969-.449219.4375-.832032.636719-1.265626l-19.035157-19.039062c-2.359374-2.359375-6.058593-2.726562-8.832031-.871094.378907.25.730469.535156 1.054688.855469zm0 0" fill="#168aa5"/><path d="m281.101562 383.796875c1.3125 1.3125 2.050782 3.09375 2.050782 4.949219 0 1.859375-.738282 3.636718-2.050782 4.949218l-10.402343 10.402344h7.765625l10.398437-10.402344c2.5625-2.539062 2.773438-6.613281.484375-9.402343-2.285156-2.789063-6.320312-3.382813-9.316406-1.367188.382812.253907.742188.546875 1.070312.871094zm0 0" fill="#168aa5"/><path d="m233.265625 352.171875v14.503906l7.777344-7.757812v-6.746094c.003906-2.582031-1.417969-4.957031-3.695313-6.175781s-5.039062-1.082032-7.1875.351562c1.945313 1.300782 3.109375 3.488282 3.105469 5.824219zm0 0" fill="#168aa5"/><path d="m253.578125 356.277344c1.3125 1.3125 2.050781 3.09375 2.050781 4.949218 0 1.855469-.738281 3.636719-2.050781 4.949219l-20.3125 20.296875v5.867188c5.429687 2.039062 9.71875 6.324218 11.753906 11.757812h5.882813l1.265625-1.265625c-2.171875-4.832031-6.171875-8.609375-11.125-10.496093v-5.867188l20.296875-20.296875c2.5625-2.539063 2.773437-6.613281.484375-9.402344-2.289063-2.792969-6.324219-3.382812-9.316407-1.367187.382813.253906.742188.546875 1.070313.875zm0 0" fill="#168aa5"/><path d="m227.957031 411.101562c.003907-1.800781.8125-3.503906 2.203125-4.648437-1.082031-.925781-2.460937-1.433594-3.882812-1.441406-3.363282 0-6.085938 2.726562-6.085938 6.085937 0 3.363282 2.722656 6.085938 6.085938 6.085938 1.421875-.003906 2.800781-.515625 3.882812-1.4375-1.386718-1.144532-2.195312-2.847656-2.203125-4.644532zm0 0" fill="#168aa5"/><path d="m207.519531 418.117188h-5.855469l-20.296874 20.296874c-.324219.324219-.683594.617188-1.066407.871094 2.773438 1.855469 6.472657 1.488282 8.832031-.871094l19.035157-19.039062c-.207031-.457031-.480469-.832031-.648438-1.257812zm0 0" fill="#168aa5"/><path d="m278.464844 418.117188h-7.765625l10.402343 10.398437c1.484376 1.484375 2.222657 3.550781 2.019532 5.640625-.207032 2.085938-1.34375 3.972656-3.089844 5.132812 2.996094 1.988282 7.007812 1.386719 9.289062-1.390624 2.277344-2.78125 2.082032-6.835938-.457031-9.382813zm0 0" fill="#168aa5"/><path d="m219.265625 455.515625-10.402344 10.402344c-.324219.324219-.683593.617187-1.066406.871093 2.773437 1.851563 6.472656 1.488282 8.832031-.871093l2.632813-2.636719zm0 0" fill="#168aa5"/><path d="m292.96875 404.117188h-7.765625c3.867187 0 7 3.132812 7 7 0 3.867187-3.132813 7-7 7h7.765625c3.867188 0 7-3.132813 7-7 0-3.867188-3.132812-7-7-7zm0 0" fill="#168aa5"/><path d="m233.265625 455.515625v14.503906c0 2.339844-1.167969 4.527344-3.117187 5.824219 2.148437 1.4375 4.910156 1.570312 7.1875.351562 2.277343-1.21875 3.699218-3.589843 3.695312-6.175781v-6.734375zm0 0" fill="#168aa5"/><path d="m241.042969 435.714844v-5.863282c4.953125-1.886718 8.953125-5.660156 11.125-10.496093l-1.265625-1.261719h-5.867188c-2.035156 5.429688-6.320312 9.71875-11.753906 11.753906v5.867188l20.296875 20.300781c1.484375 1.484375 2.222656 3.550781 2.015625 5.640625-.207031 2.085938-1.339844 3.972656-3.085938 5.132812 2.996094 1.988282 7.007813 1.386719 9.289063-1.390624 2.277344-2.78125 2.082031-6.835938-.457031-9.382813zm0 0" fill="#168aa5"/></svg>