<svg height="431pt" viewBox="0 -14 431.81836 431" width="431pt" xmlns="http://www.w3.org/2000/svg"><g fill="#f59a1d"><path d="m187.007812 145.964844c-2.835937.003906-5.398437-1.703125-6.480468-4.324219-1.085938-2.625-.480469-5.640625 1.53125-7.640625l131.550781-131.539062c2.734375-2.734376 7.164063-2.734376 9.898437 0 2.734376 2.730468 2.734376 7.164062 0 9.898437l-131.546874 131.554687c-1.3125 1.316407-3.09375 2.054688-4.953126 2.050782zm0 0"/><path d="m124.101562 208.875c-2.832031 0-5.382812-1.707031-6.464843-4.320312-1.082031-2.617188-.484375-5.625 1.515625-7.628907l34.832031-34.832031c2.734375-2.730469 7.167969-2.730469 9.898437.003906 2.734376 2.738282 2.730469 7.167969-.003906 9.902344l-34.832031 34.824219c-1.308594 1.316406-3.089844 2.054687-4.945313 2.050781zm0 0"/><path d="m61.8125 140.234375c-2.832031 0-5.382812-1.707031-6.464844-4.320313-1.082031-2.613281-.484375-5.625 1.515625-7.625l101.222657-101.226562c2.730468-2.734375 7.164062-2.734375 9.898437 0s2.734375 7.167969 0 9.902344l-101.222656 101.21875c-1.3125 1.316406-3.09375 2.054687-4.949219 2.050781zm0 0"/><path d="m238.304688 239.296875c-2.832032-.003906-5.382813-1.707031-6.464844-4.324219-1.082032-2.613281-.484375-5.625 1.515625-7.625l176.492187-176.492187c2.734375-2.734375 7.167969-2.734375 9.898438 0 2.734375 2.734375 2.734375 7.167969 0 9.898437l-176.492188 176.492188c-1.3125 1.316406-3.09375 2.050781-4.949218 2.050781zm0 0"/><path d="m198.203125 211.117188c-2.828125-.003907-5.378906-1.707032-6.464844-4.324219-1.082031-2.613281-.484375-5.625 1.519531-7.625l88.242188-88.246094c2.734375-2.730469 7.167969-2.730469 9.898438 0 2.734374 2.734375 2.734374 7.167969 0 9.902344l-88.242188 88.242187c-1.3125 1.316406-3.09375 2.054688-4.953125 2.050782zm0 0"/><path d="m102.066406 165.972656c-2.828125-.003906-5.378906-1.707031-6.460937-4.324218-1.085938-2.613282-.484375-5.621094 1.515625-7.625l31.632812-31.625c2.730469-2.734376 7.164063-2.734376 9.898438 0 2.734375 2.734374 2.734375 7.167968 0 9.902343l-31.632813 31.628907c-1.3125 1.3125-3.09375 2.046874-4.953125 2.042968zm0 0"/><path d="m153.554688 114.484375c-2.828126-.003906-5.378907-1.707031-6.460938-4.324219-1.085938-2.613281-.484375-5.621094 1.515625-7.625l14.925781-14.9375c2.734375-2.730468 7.167969-2.730468 9.902344 0 2.730469 2.734375 2.730469 7.167969 0 9.902344l-14.929688 14.925781c-1.308593 1.320313-3.09375 2.058594-4.953124 2.058594zm0 0"/><path d="m189.609375 78.449219c-2.832031-.003907-5.382813-1.707031-6.464844-4.324219-1.082031-2.613281-.484375-5.625 1.515625-7.625l43.238282-43.257812c2.734374-2.734376 7.167968-2.734376 9.902343 0 2.734375 2.734374 2.734375 7.167968 0 9.902343l-43.257812 43.253907c-1.308594 1.3125-3.082031 2.050781-4.933594 2.050781zm0 0"/><path d="m282.40625 261.070312c-2.828125 0-5.378906-1.707031-6.460938-4.320312-1.085937-2.613281-.484374-5.625 1.515626-7.625l30.378906-30.402344c2.734375-2.734375 7.167968-2.734375 9.898437 0 2.734375 2.734375 2.734375 7.167969 0 9.902344l-30.378906 30.398438c-1.3125 1.316406-3.09375 2.050781-4.953125 2.046874zm0 0"/><path d="m337.953125 205.542969c-2.832031 0-5.378906-1.707031-6.464844-4.320313-1.082031-2.613281-.488281-5.621094 1.511719-7.625l54.496094-54.488281c2.734375-2.734375 7.167968-2.734375 9.898437 0 2.734375 2.730469 2.734375 7.164063 0 9.898437l-54.496093 54.484376c-1.308594 1.316406-3.089844 2.054687-4.945313 2.050781zm0 0"/><path d="m310.160156 99.164062c-2.839844.007813-5.398437-1.703124-6.484375-4.324218-1.085937-2.621094-.480469-5.640625 1.53125-7.640625l36.359375-36.359375c2.734375-2.734375 7.167969-2.734375 9.902344 0s2.734375 7.164062 0 9.898437l-36.359375 36.359375c-1.308594 1.320313-3.089844 2.066406-4.949219 2.066406zm0 0"/><path d="m253.578125 361.53125c-2.828125 0-5.378906-1.707031-6.460937-4.320312-1.082032-2.617188-.484376-5.625 1.515624-7.628907l107.132813-107.128906c2.730469-2.734375 7.164063-2.734375 9.898437 0 2.734376 2.730469 2.734376 7.164063 0 9.898437l-107.136718 107.128907c-1.308594 1.316406-3.089844 2.054687-4.949219 2.050781zm0 0"/><path d="m382.269531 301.199219c-2.832031 0-5.382812-1.707031-6.464843-4.320313-1.082032-2.617187-.484376-5.625 1.515624-7.628906l42.546876-42.546875c2.734374-2.734375 7.167968-2.734375 9.902343 0 2.730469 2.734375 2.730469 7.167969 0 9.902344l-42.5625 42.550781c-1.308593 1.308594-3.085937 2.046875-4.9375 2.042969zm0 0"/><path d="m384.40625 230.6875c-2.828125 0-5.378906-1.707031-6.460938-4.320312-1.085937-2.617188-.484374-5.625 1.515626-7.628907l38.082031-38.082031c2.734375-2.734375 7.167969-2.734375 9.902343 0 2.734376 2.734375 2.734376 7.164062 0 9.898438l-38.085937 38.085937c-1.3125 1.3125-3.09375 2.050781-4.953125 2.046875zm0 0"/></g><path d="m346.519531 387.6875-29.097656 15.300781 5.554687-32.410156-23.542968-22.945313 32.535156-4.730468 14.550781-29.484375 14.550781 29.484375 32.542969 4.730468-23.550781 22.945313 5.5625 32.410156zm0 0" fill="#fabe02"/><path d="m346.519531 313.417969 2.554688 39.460937 18.269531 3.042969-14.367188 17.234375 22.648438 29.832031-5.5625-32.410156 23.550781-22.945313-32.542969-4.730468zm0 0" fill="#f59a1d"/><path d="m158.933594 370.011719-62.726563 32.976562 11.980469-69.84375-50.742188-49.460937 70.125-10.191406 31.363282-63.542969 31.359375 63.542969 70.128906 10.191406-50.746094 49.460937 11.976563 69.84375zm0 0" fill="#fabe02"/><path d="m221.652344 402.988281-53.164063-67.09375 33.902344-29.425781-39.359375-12.261719-4.097656-84.257812 31.359375 63.542969 70.128906 10.191406-50.746094 49.460937zm0 0" fill="#f59a1d"/><path d="m47.09375 222.324219-29.105469 15.300781 5.558594-32.40625-23.546875-22.953125 32.539062-4.726563 14.554688-29.484374 14.550781 29.484374 32.535157 4.726563-23.542969 22.953125 5.554687 32.40625zm0 0" fill="#fabe02"/><path d="m47.09375 148.054688 3.964844 39.640624 17.402344 2.953126-14.007813 14.550781 21.738281 32.425781-5.554687-32.40625 23.542969-22.953125-32.535157-4.726563zm0 0" fill="#f59a1d"/></svg>