<svg height="458pt" viewBox="0 -16 458.23668 458" width="458pt" xmlns="http://www.w3.org/2000/svg"><path d="m296.558594.117188c24.539062.015624 45.867187 16.859374 51.566406 40.730468 12.730469-5.648437 27.613281-3.007812 37.621094 6.671875 10.011718 9.683594 13.148437 24.46875 7.929687 37.378907-5.21875 12.910156-17.75 21.363281-31.675781 21.371093h-65.441406c-29.3125 0-53.074219-23.761719-53.074219-53.070312 0-29.3125 23.761719-53.074219 53.074219-53.074219zm0 0" fill="#d9ecf2"/><path d="m362 37.871094c-2.816406.011718-5.625.378906-8.355469 1.085937 16.707031 4.238281 27.644531 20.25 25.507813 37.355469-2.132813 17.101562-16.671875 29.933594-33.90625 29.933594h16.769531c18.878906 0 34.1875-15.304688 34.1875-34.1875 0-18.882813-15.308594-34.1875-34.1875-34.1875zm0 0" fill="#bdd9e5"/><path d="m343.773438 65.175781c-15.617188-.015625-30.765626 5.320313-42.925782 15.117188-13.335937-19.664063-32.683594-34.480469-55.144531-42.230469-4.800781 16.058594-1.726563 33.441406 8.292969 46.875 10.015625 13.4375 25.796875 21.347656 42.558594 21.332031h65.445312c13.421875-.007812 25.59375-7.875 31.117188-20.105469-12.90625-13.421874-30.722657-21-49.34375-20.988281zm0 0" fill="#bdd9e5"/><path d="m348.125 63.390625c7.382812-6.742187 12.414062-15.671875 14.351562-25.480469-.160156 0-.316406-.023437-.476562-.023437-4.78125 0-9.507812 1.007812-13.875 2.960937 1.71875 7.414063 1.71875 15.125 0 22.542969zm0 0" fill="#bdd9e5"/><path d="m411.847656 163.550781c3.542969-27.75-10.121094-54.867187-34.527344-68.535156s-54.667968-11.144531-76.472656 6.375c-24.144531-35.710937-66.980468-53.957031-109.460937-46.617187-42.476563 7.339843-76.707031 38.898437-87.46875 80.640624-26.714844-13.078124-58.71875-8.429687-80.609375 11.710938s-29.183594 51.648438-18.371094 79.359375c10.816406 27.710937 37.523438 45.949219 67.269531 45.9375h331.199219c28.625.03125 52.441406-21.988281 54.652344-50.527344 2.207031-28.539062-17.933594-53.964843-46.222656-58.339843zm0 0" fill="#26a3b9"/><path d="m207.410156 202.671875-55.628906 69.746094h76.402344l55.628906-69.746094zm0 0" fill="#168aa5"/><path d="m411.847656 163.550781c2.867188-21.992187-5.101562-44.011719-21.378906-59.074219s-38.847656-21.300781-60.550781-16.738281c35.109375 7.167969 58.671875 40.292969 53.9375 75.8125 28.285156 4.375 48.429687 29.800781 46.21875 58.339844-2.210938 28.539063-26.027344 50.558594-54.652344 50.527344h28c28.625.03125 52.441406-21.988281 54.652344-50.527344 2.210937-28.539063-17.933594-53.964844-46.21875-58.339844zm0 0" fill="#168aa5"/><path d="m80.695312 128.507812c2.128907 22.078126 10.835938 43.007813 24.988282 60.085938-4.789063-17.34375-5.386719-35.578125-1.75-53.199219-7.304688-3.589843-15.160156-5.917969-23.238282-6.886719zm0 0" fill="#168aa5"/><path d="m347.640625 304.933594h-50.066406l-48.972657 61.417968h42.9375l-48.222656 60.472657 115.699219-76.167969h-47.828125zm0 0" fill="#fabe02"/><path d="m258.414062 202.648438h-76.398437l-74.730469 93.71875h65.519532l-73.582032 92.277343 176.542969-116.226562h-72.980469zm0 0" fill="#fabe02"/><g fill="#f59a1d"><path d="m340.980469 350.65625-77.738281 51.179688-19.925782 24.988281 115.699219-76.167969zm0 0"/><path d="m311.1875 350.65625 36.453125-45.722656h-18.03125l-36.457031 45.722656zm0 0"/><path d="m202.785156 272.417969 55.628906-69.769531h-25.457031l-55.628906 69.769531zm0 0"/><path d="m250.308594 272.417969-122.953125 80.953125-28.132813 35.273437 176.542969-116.226562zm0 0"/></g></svg>