<svg height="357pt" viewBox="-7 0 357 357.672" width="357pt" xmlns="http://www.w3.org/2000/svg"><path d="m200.910156 0h-109.402344l-91.171874 191.183594h85.332031l-79.621094 166.488281 195.816406-205.679687h-83.054687zm0 0" fill="#fabe02"/><path d="m118.808594 151.992188 82.101562-151.992188h-25.277344l-82.105468 151.992188zm0 0" fill="#f59a1d"/><path d="m176.578125 151.992188-145.011719 152.324218-25.519531 53.355469 195.816406-205.679687zm0 0" fill="#f59a1d"/><path d="m344.289062 109.773438h-70.15625l-61.335937 122.59375h54.71875l-51.054687 106.765624 125.566406-131.898437h-53.257813zm0 0" fill="#fabe02"/><g fill="#f59a1d"><path d="m288.769531 207.234375 55.519531-97.460937h-25.28125l-55.519531 97.460937zm0 0"/><path d="m241.980469 285.773438-25.519531 53.359374 125.566406-131.898437h-25.28125zm0 0"/></g></svg>