<svg height="471pt" viewBox="0 -34 471.873 471" width="471pt" xmlns="http://www.w3.org/2000/svg"><path d="m425.476562 110.792969c3.542969-27.75-10.117187-54.867188-34.523437-68.535157-24.40625-13.667968-54.667969-11.144531-76.476563 6.375-24.144531-35.699218-66.972656-53.933593-109.441406-46.597656-42.472656 7.339844-76.699218 38.886719-87.464844 80.621094-26.714843-13.074219-58.71875-8.421875-80.605468 11.714844-21.886719 20.140625-29.179688 51.648437-18.367188 79.355468 10.8125 27.710938 37.515625 45.949219 67.261719 45.941407h331.199219c28.621094.03125 52.441406-21.988281 54.652344-50.527344 2.207031-28.539063-17.933594-53.964844-46.222657-58.339844zm0 0" fill="#26a3b9"/><path d="m225.679688 149.894531-55.632813 69.773438h76.398437l55.632813-69.773438zm0 0" fill="#168aa5"/><path d="m425.476562 110.792969c2.609376-19.574219-3.386718-39.320313-16.4375-54.140625-13.054687-14.816406-31.886718-23.257813-51.632812-23.140625-6.328125.007812-12.625.890625-18.707031 2.632812 32.816406 9.03125 53.921875 40.910157 49.417969 74.648438 28.3125 4.351562 48.484374 29.789062 46.273437 58.347656s-26.0625 50.585937-54.703125 50.527344h37.359375c28.621094.03125 52.441406-21.988281 54.652344-50.527344 2.207031-28.539063-17.933594-53.964844-46.222657-58.339844zm0 0" fill="#168aa5"/><path d="m85.859375 75.242188c-2.230469 0-4.421875.136718-6.597656.332031 5.878906 24.160156 20.054687 45.488281 40.054687 60.261719-4.785156-17.34375-5.386718-35.578126-1.746094-53.199219-9.863281-4.863281-20.714843-7.390625-31.710937-7.394531zm0 0" fill="#168aa5"/><path d="m358.933594 252.175781h-48.949219l-47.871094 60.035157h41.976563l-47.140625 59.121093 113.101562-74.460937h-46.757812zm0 0" fill="#fabe02"/><path d="m272.046875 149.894531h-76.402344l-74.726562 93.71875h65.519531l-73.582031 92.277344 176.542969-116.230469h-72.980469zm0 0" fill="#fabe02"/><g fill="#f59a1d"><path d="m323.292969 296.871094 35.640625-44.695313h-23.273438l-35.632812 44.695313zm0 0"/><path d="m346.777344 296.871094-64.109375 42.207031-25.71875 32.253906 113.101562-74.460937zm0 0"/><path d="m216.417969 219.660156 55.628906-69.765625h-23.269531l-55.632813 69.765625zm0 0"/><path d="m266.128906 219.660156-127.558594 83.980469-25.714843 32.25 176.542969-116.230469zm0 0"/></g><path d="m6.996094 342.890625c-2.6875 0-5.136719-1.542969-6.304688-3.964844-1.164062-2.421875-.839844-5.300781.839844-7.402343l18.175781-22.769532c2.410157-3.019531 6.816407-3.515625 9.839844-1.101562 3.019531 2.410156 3.515625 6.816406 1.101563 9.839844l-18.175782 22.761718c-1.328125 1.667969-3.34375 2.640625-5.476562 2.636719zm0 0" fill="#bdd9e5"/><path d="m43.394531 297.292969c-2.691406-.003907-5.140625-1.542969-6.308593-3.96875-1.164063-2.421875-.839844-5.300781.839843-7.402344l34.179688-42.796875c2.414062-3.023438 6.820312-3.519531 9.839843-1.105469 3.023438 2.414063 3.515626 6.816407 1.105469 9.839844l-34.179687 42.800781c-1.328125 1.664063-3.347656 2.636719-5.476563 2.632813zm0 0" fill="#26a3b9"/><path d="m21.574219 402.703125c-2.691407 0-5.140625-1.542969-6.304688-3.964844-1.167969-2.425781-.839843-5.300781.835938-7.402343l21.820312-27.335938c2.414063-3.023438 6.816407-3.515625 9.839844-1.105469 3.023437 2.414063 3.515625 6.820313 1.105469 9.839844l-21.820313 27.332031c-1.328125 1.667969-3.34375 2.640625-5.476562 2.636719zm0 0" fill="#bdd9e5"/><path d="m60.484375 353.960938c-2.6875-.003907-5.140625-1.542969-6.304687-3.96875-1.164063-2.421876-.839844-5.300782.839843-7.402344l15.386719-19.273438c2.417969-3.023437 6.824219-3.511718 9.847656-1.09375 3.019532 2.414063 3.507813 6.824219 1.09375 9.84375l-15.390625 19.277344c-1.328125 1.660156-3.34375 2.621094-5.472656 2.617188zm0 0" fill="#26a3b9"/><path d="m93.289062 312.867188c-2.691406 0-5.144531-1.542969-6.308593-3.96875-1.167969-2.425782-.835938-5.304688.84375-7.40625l29.523437-36.980469c2.410156-3.023438 6.816406-3.515625 9.839844-1.105469 3.019531 2.414062 3.515625 6.820312 1.101562 9.839844l-29.519531 36.980468c-1.328125 1.671876-3.34375 2.644532-5.480469 2.640626zm0 0" fill="#bdd9e5"/><path d="m83.898438 402.703125c-2.691407 0-5.140626-1.542969-6.304688-3.964844-1.167969-2.425781-.84375-5.300781.835938-7.402343l28.953124-36.273438c2.410157-3.019531 6.816407-3.515625 9.839844-1.101562 3.019532 2.410156 3.515625 6.816406 1.101563 9.839843l-28.949219 36.265625c-1.328125 1.667969-3.34375 2.640625-5.476562 2.636719zm0 0" fill="#bdd9e5"/><path d="m146.226562 402.703125c-2.691406 0-5.140624-1.542969-6.308593-3.964844-1.164063-2.425781-.839844-5.300781.839843-7.402343l38.914063-48.75c2.410156-3.019532 6.816406-3.515626 9.839844-1.101563 3.019531 2.410156 3.515625 6.816406 1.101562 9.839844l-38.914062 48.742187c-1.328125 1.667969-3.34375 2.636719-5.472657 2.636719zm0 0" fill="#bdd9e5"/><path d="m205.386719 328.585938c-2.6875 0-5.140625-1.542969-6.304688-3.964844-1.164062-2.425782-.835937-5.300782.839844-7.402344l32.800781-41.105469c2.410156-3.023437 6.816406-3.515625 9.835938-1.105469 3.023437 2.414063 3.515625 6.820313 1.101562 9.839844l-32.800781 41.109375c-1.328125 1.664063-3.34375 2.636719-5.472656 2.628907zm0 0" fill="#26a3b9"/><path d="m208.546875 402.703125c-2.691406 0-5.140625-1.542969-6.308594-3.964844-1.164062-2.425781-.839843-5.300781.839844-7.402343l45.199219-56.644532c2.414062-3.023437 6.820312-3.515625 9.839844-1.105468 3.023437 2.414062 3.515624 6.820312 1.105468 9.839843l-45.199218 56.640625c-1.328126 1.667969-3.347657 2.640625-5.476563 2.636719zm0 0" fill="#bdd9e5"/><path d="m270.875 402.703125c-2.6875 0-5.136719-1.542969-6.304688-3.964844-1.164062-2.421875-.839843-5.296875.835938-7.398437l7.148438-8.960938c2.410156-3.019531 6.816406-3.515625 9.835937-1.105468 3.023437 2.410156 3.519531 6.816406 1.105469 9.839843l-7.144532 8.957031c-1.332031 1.667969-3.347656 2.636719-5.476562 2.632813zm0 0" fill="#26a3b9"/><path d="m366.980469 282.308594c-2.6875 0-5.140625-1.542969-6.304688-3.964844-1.164062-2.425781-.839843-5.300781.839844-7.402344l22.214844-27.832031c2.410156-3.023437 6.816406-3.519531 9.839843-1.105469 3.023438 2.414063 3.515626 6.816406 1.105469 9.839844l-22.21875 27.824219c-1.328125 1.667969-3.34375 2.640625-5.476562 2.640625zm0 0" fill="#bdd9e5"/><path d="m333.199219 402.703125c-2.691407 0-5.140625-1.542969-6.308594-3.964844-1.164063-2.425781-.839844-5.300781.839844-7.402343l27.152343-34c2.410157-3.023438 6.816407-3.515626 9.835938-1.105469 3.023438 2.410156 3.519531 6.816406 1.105469 9.835937l-27.148438 34c-1.332031 1.667969-3.347656 2.640625-5.476562 2.636719zm0 0" fill="#bdd9e5"/><path d="m375.292969 349.96875c-2.6875 0-5.140625-1.542969-6.304688-3.96875-1.167969-2.421875-.839843-5.296875.835938-7.398438l7.515625-9.414062c2.410156-3.023438 6.816406-3.515625 9.839844-1.105469 3.019531 2.414063 3.515624 6.820313 1.101562 9.839844l-7.511719 9.414063c-1.328125 1.667968-3.34375 2.636718-5.476562 2.632812zm0 0" fill="#26a3b9"/><path d="m401.261719 317.4375c-2.6875-.003906-5.140625-1.542969-6.304688-3.96875-1.167969-2.421875-.839843-5.300781.835938-7.402344l33.171875-41.554687c2.414062-3.023438 6.820312-3.515625 9.839844-1.105469 3.023437 2.414062 3.519531 6.820312 1.105468 9.839844l-33.171875 41.558594c-1.328125 1.664062-3.34375 2.632812-5.476562 2.632812zm0 0" fill="#26a3b9"/></svg>