<svg height="444pt" viewBox="-3 0 443 444" width="444pt" xmlns="http://www.w3.org/2000/svg"><path d="m36.171875 47.832031c-14.550781 147.511719 44.375 159.769531 112.441406 198.933594 54.996094 31.632813 118.753907 98.675781 56.898438 197.234375 130.988281-19.703125 204.589843-129.554688 174.433593-209.640625-30.960937-82.183594 34.726563-106.550781 42.351563-186.527344zm0 0" fill="#26a3b9"/><path d="m283.269531 223.898438c-7.984375 1.089843-15.191406 5.355468-19.984375 11.832031-4.792968 6.476562-6.761718 14.617187-5.464844 22.570312l-12.121093 12.097657c-2.734375 2.734374-2.734375 7.167968 0 9.902343s7.167969 2.734375 9.902343 0l12.097657-12.113281c7.953125 1.296875 16.09375-.671875 22.570312-5.464844 6.476563-4.792968 10.742188-12 11.832031-19.984375l2.957032-21.789062zm0 0" fill="#168aa5"/><path d="m422.300781 47.832031h-31.269531c-7.628906 79.980469-73.332031 104.34375-42.355469 186.527344 27.273438 72.402344-30.292969 169.117187-138.371093 201.570313-1.515626 2.667968-3.089844 5.351562-4.800782 8.066406 130.996094-19.699219 204.597656-129.550782 174.441406-209.636719-30.960937-82.183594 34.726563-106.546875 42.355469-186.527344zm0 0" fill="#168aa5"/><path d="m422.300781 47.832031c0-26.417969-86.4375-47.832031-193.066406-47.832031-106.625 0-193.0625 21.414062-193.0625 47.832031s86.4375 47.832031 193.0625 47.832031c106.628906 0 193.066406-21.414062 193.066406-47.832031zm0 0" fill="#d9ecf2"/><path d="m229.234375 0c-6.398437 0-12.730469.078125-18.996094.230469 97.710938 2.367187 174.070313 22.773437 174.070313 47.601562s-76.359375 45.230469-174.070313 47.601563c6.253907.152344 12.585938.226562 18.996094.230468 106.628906 0 193.066406-21.417968 193.066406-47.832031 0-26.417969-86.441406-47.832031-193.066406-47.832031zm0 0" fill="#bdd9e5"/><path d="m402.734375 68.820312c-.710937-1.574218-1.988281-2.828124-3.574219-3.511718-35.804687-15.328125-99.328125-24.480469-169.929687-24.480469-70.597657 0-134.117188 9.171875-169.929688 24.484375-1.589843.683594-2.863281 1.9375-3.578125 3.511719 5.175782 2.558593 10.511719 4.777343 15.976563 6.640625 34.917969-12.800782 94.132812-20.632813 157.53125-20.632813 63.402343 0 122.621093 7.832031 157.539062 20.632813 5.460938-1.863282 10.792969-4.082032 15.964844-6.644532zm0 0" fill="#bdd9e5"/><g fill="#168aa5"><path d="m229.230469 187.429688c-83.851563 0-147.269531-11.09375-182.726563-24.304688 2.683594 6.230469 5.953125 12.195312 9.765625 17.8125 44.601563 13.457031 109.894531 20.492188 172.960938 20.492188 58.65625 0 107.503906-5.417969 142.765625-15.082032.398437-5.273437 1.246094-10.5 2.535156-15.628906-31.230469 9.601562-79.070312 16.710938-145.300781 16.710938zm0 0"/><path d="m284.863281 398.558594c-19.121093-.894532-38.027343-4.449219-56.171875-10.558594-.882812 4.621094-2.015625 9.1875-3.382812 13.6875 18.96875 6.089844 38.636718 9.730469 58.527344 10.832031 3.496093.257813 6.871093.453125 10.179687.609375 7.097656-4.179687 13.957031-8.75 20.542969-13.691406-8.890625.207031-18.726563-.074219-29.695313-.878906zm0 0"/><path d="m385.699219 257.328125c-27.199219 13.386719-67.144531 27.144531-114.671875 36.851563-19.699219 4.046874-39.59375 7.097656-59.597656 9.144531 2.8125 4.273437 5.367187 8.714843 7.644531 13.296875 17.601562-1.976563 36-4.902344 54.742187-8.726563 38.820313-7.472656 76.664063-19.34375 112.800782-35.375.039062-5.078125-.265626-10.152343-.917969-15.191406zm0 0"/><path d="m239.566406 152.398438c-3.171875 0-5.117187-.03125-5.566406-.042969-3.863281-.074219-6.9375-3.265625-6.863281-7.132813.011719-1.863281.777343-3.640625 2.121093-4.933594 1.339844-1.289062 3.148438-1.984374 5.011719-1.929687.703125 0 72.273438 1.199219 123.269531-13.699219 3.679688-.996094 7.480469 1.136719 8.550782 4.792969 1.066406 3.660156-.988282 7.503906-4.625 8.644531-45.203125 13.203125-103.683594 14.300782-121.898438 14.300782zm0 0"/><path d="m196.859375 150.648438c-.261719 0-.519531-.015626-.78125-.042969-18.316406-2.035157-30.558594-4.171875-31.070313-4.261719-3.777343-.699219-6.285156-4.3125-5.621093-8.09375.664062-3.785156 4.253906-6.324219 8.046875-5.695312.117187.019531 12.351562 2.15625 30.1875 4.136718 3.683594.414063 6.40625 3.636719 6.203125 7.339844-.199219 3.703125-3.257813 6.605469-6.96875 6.617188zm0 0"/><path d="m255.101562 346.238281c-3.769531.011719-6.867187-2.960937-7.015624-6.722656-.148438-3.765625 2.710937-6.972656 6.464843-7.253906 56.066407-4.449219 81.25-18.105469 81.496094-18.242188 3.375-1.890625 7.640625-.691406 9.53125 2.679688 1.894531 3.371093.695313 7.640625-2.679687 9.53125-1.097657.621093-27.664063 15.261719-87.238282 20-.1875.003906-.359375.007812-.558594.007812zm0 0"/></g><path d="m251.566406 258.890625-1.429687-7.679687c-1.5-8.042969.367187-16.34375 5.15625-22.976563 4.792969-6.628906 12.09375-11.003906 20.199219-12.105469l21.792968-2.960937-2.960937 21.792969c-1.101563 8.105468-5.476563 15.40625-12.109375 20.195312-6.628906 4.792969-14.933594 6.65625-22.976563 5.160156zm0 0" fill="#d9ecf2"/><path d="m242.898438 274.578125c-2.828126 0-5.378907-1.703125-6.460938-4.320313-1.085938-2.613281-.484375-5.625 1.515625-7.625l23.980469-23.980468c2.730468-2.734375 7.164062-2.734375 9.898437 0s2.734375 7.164062 0 9.898437l-23.980469 23.980469c-1.3125 1.316406-3.09375 2.050781-4.953124 2.046875zm0 0" fill="#bdd9e5"/><path d="m152.769531 384.214844-6.964843 3.539062c-7.292969 3.699219-15.785157 4.25-23.492188 1.523438-7.710938-2.730469-13.964844-8.496094-17.308594-15.960938l-8.984375-20.078125 21.746094-3.304687c8.085937-1.230469 16.324219.910156 22.789063 5.917968 6.46875 5.007813 10.597656 12.449219 11.429687 20.589844zm0 0" fill="#26a3b9"/><path d="m163.546875 397.105469c-1.167969 0-2.320313-.296875-3.347656-.859375l-29.765625-16.246094c-3.367188-1.867188-4.597656-6.097656-2.753906-9.476562 1.84375-3.378907 6.070312-4.632813 9.460937-2.8125l29.761719 16.246093c2.816406 1.53125 4.230468 4.777344 3.4375 7.878907-.792969 3.105468-3.59375 5.273437-6.796875 5.269531zm0 0" fill="#168aa5"/><path d="m78.050781 241.445312-3.375 7.042969c-3.535156 7.375-9.941406 12.980469-17.722656 15.507813-7.78125 2.523437-16.253906 1.75-23.449219-2.144532l-19.339844-10.46875 15.246094-15.851562c5.671875-5.894531 13.511719-9.207031 21.695313-9.164062 8.179687.039062 15.984375 3.433593 21.59375 9.390624zm0 0" fill="#26a3b9"/><path d="m239.566406 143.316406c-3.171875 0-5.117187-.03125-5.566406-.042968-3.863281-.074219-6.9375-3.269532-6.863281-7.132813.011719-1.863281.777343-3.640625 2.121093-4.933594 1.339844-1.292969 3.148438-1.988281 5.011719-1.929687.703125 0 72.273438 1.199218 123.269531-13.703125 3.679688-.996094 7.480469 1.136719 8.550782 4.796875 1.066406 3.660156-.988282 7.5-4.625 8.640625-45.203125 13.203125-103.683594 14.304687-121.898438 14.304687zm0 0" fill="#d9ecf2"/><path d="m196.859375 141.558594c-.261719 0-.519531-.011719-.78125-.042969-18.316406-2.03125-30.558594-4.171875-31.070313-4.257813-3.777343-.699218-6.285156-4.3125-5.621093-8.097656.664062-3.785156 4.253906-6.324218 8.046875-5.691406.117187.019531 12.351562 2.15625 30.1875 4.136719 3.683594.414062 6.40625 3.632812 6.203125 7.335937-.199219 3.707032-3.257813 6.609375-6.96875 6.617188zm0 0" fill="#d9ecf2"/><path d="m229.230469 192.34375c-110.875 0-228.730469-21.703125-228.730469-61.945312 0-3.863282 3.132812-7 7-7s7 3.136718 7 7c0 20 81.683594 47.929687 214.714844 47.929687 131.519531 0 190.675781-28.027344 190.675781-47.929687 0-3.863282 3.136719-7 7-7 3.867187 0 7 3.136718 7 7 .019531 37.636718-80.320313 61.945312-204.660156 61.945312zm0 0" fill="#0162a7"/><path d="m168.988281 310.5625c-6.171875 0-12.09375-.164062-17.773437-.496094-37.800782-2.210937-58.589844-11.296875-61.804688-27.011718-.71875-3.761719 1.722656-7.402344 5.476563-8.171876 3.753906-.765624 7.425781 1.628907 8.242187 5.375 1.238282 6.058594 14.800782 13.839844 48.90625 15.835938 32.671875 1.914062 74.9375-2 118.988282-10.996094 82.019531-16.761718 141.554687-45.570312 151.734374-63.742187 1.886719-3.371094 1.277344-5.039063 1.078126-5.597657-4.523438-12.460937-26.765626-11.4375-26.992188-11.417968-3.832031.199218-7.109375-2.726563-7.347656-6.554688-.238282-3.828125 2.648437-7.136718 6.476562-7.417968 1.339844-.078126 32.886719-1.789063 41.019532 20.609374 1.949218 5.746094 1.203124 12.0625-2.023438 17.199219-14.03125 25.082031-80.296875 54.117188-161.148438 70.625-34.476562 7.335938-69.589843 11.277344-104.832031 11.761719zm0 0" fill="#d9ecf2"/><path d="m308.832031 404.429688c-7.734375 0-16.066406-.332032-24.996093-.996094-30.476563-2.246094-82.496094-9.9375-88.484376-36.28125-.578124-2.449219.203126-5.015625 2.042969-6.730469 1.84375-1.710937 4.460938-2.304687 6.859375-1.554687 2.398438.75 4.214844 2.726562 4.75 5.183593 2.28125 10.042969 26.625 21.796875 75.855469 25.421875 53.875 3.953125 81.746094-4.046875 93.199219-26.800781 1.738281-3.453125 5.949218-4.84375 9.402344-3.109375 3.453124 1.738281 4.84375 5.949219 3.105468 9.402344-12.269531 24.375-37.265625 35.464844-81.734375 35.464844zm0 0" fill="#0162a7"/><path d="m255.101562 337.15625c-3.769531.011719-6.867187-2.960938-7.015624-6.726562-.148438-3.761719 2.710937-6.96875 6.464843-7.253907 56.066407-4.449219 81.25-18.105469 81.496094-18.238281 3.367187-1.851562 7.597656-.644531 9.476563 2.707031 1.882812 3.351563.710937 7.589844-2.625 9.5-1.097657.621094-27.664063 15.257813-87.238282 20-.1875.003907-.359375.011719-.558594.011719zm0 0" fill="#0162a7"/></svg>