<svg height="459pt" viewBox="-32 0 459 459.95847" width="459pt" xmlns="http://www.w3.org/2000/svg"><path d="m233.996094 83.476562c41.425781 41.429688 41.425781 108.597657 0 150.023438-41.429688 41.429688-108.597656 41.429688-150.027344 0-41.429688-41.425781-41.429688-108.59375 0-150.023438 41.429688-41.429687 108.597656-41.429687 150.027344 0zm0 0" fill="#fabe02"/><path d="m233.992188 233.5c16.082031-16.035156 26.566406-36.824219 29.894531-59.289062-27.1875-31.136719-69.976563-43.660157-109.664063-32.09375-39.683594 11.570312-69.046875 45.121093-75.246094 85.992187 1.601563 1.835937 3.246094 3.644531 4.992188 5.390625 41.429688 41.429688 108.59375 41.429688 150.023438 0zm0 0" fill="#f59a1d"/><path d="m233.992188 83.476562c-23.210938-23.242187-55.894532-34.394531-88.472657-30.191406 52.945313 6.765625 92.609375 51.824219 92.609375 105.199219s-39.664062 98.433594-92.609375 105.199219c45.003907 5.765625 88.691407-17.730469 108.6875-58.460938 19.996094-40.730468 11.871094-89.664062-20.214843-121.746094zm0 0" fill="#f59a1d"/><path d="m66.3125 72.820312c-1.855469.003907-3.636719-.734374-4.949219-2.050781l-18.226562-18.230469c-2.734375-2.730468-2.734375-7.164062 0-9.898437s7.164062-2.734375 9.898437 0l18.230469 18.226563c2 2.003906 2.597656 5.011718 1.515625 7.628906-1.082031 2.613281-3.632812 4.320312-6.464844 4.320312zm-27.15625 53.5625c1.003906-3.734374-1.210938-7.574218-4.949219-8.574218l-24.921875-6.671875c-3.738281-.996094-7.578125 1.230469-8.570312 4.96875-.996094 3.738281 1.230468 7.578125 4.96875 8.570312l24.90625 6.671875c1.792968.484375 3.703125.234375 5.3125-.695312 1.609375-.925782 2.78125-2.457032 3.261718-4.25zm-29.871094 79.460938 24.902344-6.671875c3.734375-1 5.953125-4.839844 4.949219-8.574219-1-3.734375-4.835938-5.949218-8.574219-4.949218l-24.878906 6.671874c-3.734375 1-5.949219 4.839844-4.949219 8.574219s4.839844 5.949219 8.574219 4.949219zm190.359375-172.132812 6.671875-24.898438c1-3.734375-1.214844-7.574219-4.949218-8.574219-3.734376-1-7.574219 1.214844-8.574219 4.949219l-6.671875 24.902344c-1 3.734375 1.214844 7.570312 4.949218 8.574218 3.734376 1 7.574219-1.21875 8.574219-4.953124zm-72.761719 4.964843c3.738282-1 5.953126-4.839843 4.949219-8.574219l-6.679687-24.914062c-1-3.734375-4.839844-5.949219-8.574219-4.949219s-5.949219 4.839844-4.949219 8.574219l6.671875 24.898438c.476563 1.800781 1.648438 3.335937 3.257813 4.269531 1.613281.929687 3.527344 1.179687 5.324218.695312zm147.945313 235.664063c2.734375-2.734375 2.734375-7.164063 0-9.898438l-18.226563-18.234375c-2.734374-2.730469-7.167968-2.730469-9.902343 0-2.734375 2.734375-2.734375 7.167969 0 9.902344l18.230469 18.230469c2.734374 2.734375 7.164062 2.734375 9.898437 0zm-18.226563-203.570313 18.226563-18.230469c2.734375-2.730468 2.734375-7.164062 0-9.898437s-7.164063-2.734375-9.898437 0l-18.230469 18.226563c-2.734375 2.734374-2.734375 7.167968 0 9.902343s7.167969 2.734375 9.902343 0zm-203.570312 203.566407 18.230469-18.230469c2.734375-2.734375 2.734375-7.167969 0-9.902344-2.734375-2.730469-7.167969-2.730469-9.902344 0l-18.226563 18.234375c-2.734374 2.734375-2.734374 7.164062 0 9.898438 2.734376 2.734374 7.164063 2.734374 9.898438 0zm264.203125-73.445313c1-3.734375-1.214844-7.574219-4.949219-8.574219l-24.90625-6.671875c-3.734375-1-7.570312 1.214844-8.574218 4.949219-1 3.734375 1.21875 7.574219 4.953124 8.574219l24.902344 6.671875c1.792969.484375 3.707032.234375 5.316406-.695313 1.609376-.925781 2.78125-2.457031 3.261719-4.253906zm-29.855469-69.558594 24.90625-6.65625c3.734375-1 5.949219-4.839843 4.949219-8.574219-1-3.734374-4.839844-5.949218-8.574219-4.949218l-24.902344 6.671875c-3.734374 1-5.953124 4.839843-4.953124 8.574219 1.003906 3.734374 4.839843 5.949218 8.574218 4.949218zm-162.226562 180.460938 6.671875-24.902344c1-3.734375-1.214844-7.570313-4.949219-8.570313-3.734375-1.003906-7.574219 1.214844-8.574219 4.949219l-6.671875 24.898438c-1 3.734375 1.214844 7.574219 4.949219 8.574219s7.574219-1.214844 8.574219-4.949219zm76.234375 4.949219c3.738281-1.003907 5.953125-4.84375 4.949219-8.578126l-6.671876-24.898437c-1-3.734375-4.839843-5.953125-8.574218-4.949219-3.734375 1-5.949219 4.835938-4.949219 8.570313l6.671875 24.902343c.480469 1.792969 1.652344 3.324219 3.261719 4.253907 1.609375.925781 3.519531 1.175781 5.3125.695312zm0 0" fill="#fabe02"/><path d="m324.394531 226.710938c-13.316406.003906-26.371093 3.714843-37.699219 10.71875-13.09375-49.183594-59.222656-82.175782-109.996093-78.679688-50.777344 3.496094-91.945313 42.503906-98.171875 93.019531-22.691406-5.570312-46.5625 2.421875-61.324219 20.535157-14.765625 18.109374-17.78125 43.101562-7.753906 64.203124 10.03125 21.105469 31.3125 34.550782 54.679687 34.539063h260.265625c39.859375 0 72.167969-32.308594 72.167969-72.167969 0-39.855468-32.308594-72.167968-72.167969-72.167968zm0 0" fill="#26a3b9"/><path d="m324.394531 226.710938c-5.328125.003906-10.640625.605468-15.839843 1.792968 35.886718 8.046875 59.976562 41.800782 55.921874 78.351563-4.058593 36.554687-34.960937 64.203125-71.734374 64.1875h31.652343c39.859375 0 72.167969-32.308594 72.167969-72.167969 0-39.855469-32.308594-72.167969-72.167969-72.167969zm0 0" fill="#168aa5"/><path d="m283.199219 226.84375c-17.800781-46.726562-65.800781-74.691406-115.230469-67.136719 40.398438 5.96875 73.511719 36.914063 85.699219 75.121094-7.089844 17.480469-4.855469 37.363281 5.941406 52.832031 0 0 0-33.953125 27.085937-50.234375-.910156-3.425781-1.996093-6.800781-3.257812-10.109375-.0625-.167968-.152344-.3125-.238281-.472656zm0 0" fill="#168aa5"/><path d="m146.835938 437.710938c0 12.285156-9.957032 22.242187-22.242188 22.242187s-22.242188-9.957031-22.242188-22.242187c0-12.28125 22.242188-44.398438 22.242188-44.398438s22.242188 32.117188 22.242188 44.398438zm0 0" fill="#26a3b9"/><path d="m283.835938 437.710938c0 12.285156-9.957032 22.242187-22.242188 22.242187s-22.242188-9.957031-22.242188-22.242187c0-12.28125 22.242188-44.398438 22.242188-44.398438s22.242188 32.117188 22.242188 44.398438zm0 0" fill="#26a3b9"/><g fill="#168aa5"><path d="m124.597656 393.292969s-2.976562 4.304687-6.742187 10.339843c6.550781 10.5 15.503906 26.28125 15.503906 34.078126 0 9.691406-6.269531 18.265624-15.503906 21.203124 6.761719 2.148438 14.144531.945313 19.871093-3.246093 5.726563-4.1875 9.113282-10.859375 9.109376-17.957031 0-12.28125-22.238282-44.417969-22.238282-44.417969zm0 0"/><path d="m261.597656 393.292969s-2.976562 4.304687-6.742187 10.339843c6.550781 10.5 15.503906 26.28125 15.503906 34.078126 0 9.691406-6.269531 18.265624-15.503906 21.203124 6.761719 2.148438 14.144531.945313 19.871093-3.246093 5.726563-4.1875 9.113282-10.859375 9.109376-17.957031 0-12.28125-22.238282-44.417969-22.238282-44.417969zm0 0"/></g></svg>