<svg height="458pt" viewBox="0 -54 458.39498 458" width="458pt" xmlns="http://www.w3.org/2000/svg"><path d="m78.726562 115.601562c9.621094.007813 19.117188 2.148438 27.804688 6.269532.667969-61.964844 47.335938-113.757813 108.898438-120.847656 61.5625-7.09375 118.789062 32.730468 133.527343 92.921874 29.605469-12.230468 63.664063-5.421874 86.292969 17.246094 22.628906 22.671875 29.375 56.742188 17.089844 86.328125-12.285156 29.582031-41.179688 48.851563-73.210938 48.824219h-300.402344c-36.109374 0-65.378906-29.273438-65.378906-65.382812 0-36.109376 29.269532-65.378907 65.378906-65.378907zm0 0" fill="#d9ecf2"/><g fill="#bdd9e5"><path d="m196.363281 132.683594c0 6.804687 5.515625 12.320312 12.320313 12.320312 6.804687 0 12.320312-5.515625 12.320312-12.320312 0-21.71875 17.605469-39.324219 39.324219-39.332032 21.71875-.003906 39.328125 17.597657 39.339844 39.316407s-17.585938 39.332031-39.304688 39.347656h-94.332031c-6.804688 0-12.320312 5.515625-12.320312 12.320313 0 6.804687 5.515624 12.320312 12.320312 12.320312h94.332031c35.332031-.011719 63.960938-28.664062 63.953125-63.992188-.011718-35.332031-28.65625-63.964843-63.988281-63.960937-35.328125.007813-63.964844 28.652344-63.964844 63.980469zm0 0"/><path d="m106.695312 234.367188c0-6.800782-5.515624-12.320313-12.320312-12.320313h-65.707031c-.246094 0-.480469.0625-.722657.074219 12.394532 15.347656 31.070313 24.257812 50.796876 24.238281h18.378906c5.597656-1.273437 9.570312-6.25 9.574218-11.992187zm0 0"/><path d="m396.058594 194.683594h-43.597656c-6.804688 0-12.320313 5.515625-12.320313 12.320312 0 6.804688 5.515625 12.320313 12.320313 12.320313h43.597656c6.804687 0 12.320312-5.515625 12.320312-12.320313 0-6.804687-5.515625-12.320312-12.320312-12.320312zm0 0"/><path d="m286.296875 221.734375h-142.1875c-6.804687 0-12.320313 5.515625-12.320313 12.320313 0 6.800781 5.515626 12.316406 12.320313 12.316406h192.539063c-12.085938-15.535156-30.667969-24.628906-50.351563-24.636719zm0 0"/><path d="m72.570312 196.65625h43.601563c6.804687 0 12.320313-5.515625 12.320313-12.320312 0-6.804688-5.515626-12.320313-12.320313-12.320313h-43.601563c-6.800781 0-12.316406 5.515625-12.316406 12.320313 0 6.804687 5.515625 12.320312 12.316406 12.320312zm0 0"/><path d="m314.554688 93.945312c9.566406-3.960937 19.820312-6 30.171874-6 .890626 0 1.75.101563 2.628907.132813-17.304688-58.347656-74.738281-95.214844-134.992188-86.660156 49.757813 7.09375 90.207031 43.71875 102.191407 92.527343zm0 0"/><path d="m379.128906 87.960938c-5.769531.015624-11.519531.667968-17.144531 1.941406 39.40625 8.789062 65.886719 45.828125 61.460937 85.960937-4.425781 40.132813-38.34375 70.507813-78.722656 70.496094h34.402344c43.738281 0 79.199219-35.457031 79.199219-79.199219 0-43.742187-35.460938-79.199218-79.199219-79.199218zm0 0"/><path d="m336.789062 162.847656s39.777344-20.511718 46.90625-74.65625c-1.519531-.085937-3.027343-.230468-4.566406-.230468-10.355468 0-20.605468 2.039062-30.171875 6 11.007813 47.222656-12.167969 68.886718-12.167969 68.886718zm0 0"/></g><path d="m78.027344 246.6875h-65.707032c-6.804687 0-12.320312-5.515625-12.320312-12.320312 0-6.800782 5.515625-12.320313 12.320312-12.320313h65.707032c6.804687 0 12.320312 5.519531 12.320312 12.320313 0 6.804687-5.515625 12.320312-12.320312 12.320312zm0 0" fill="#26a3b9"/><path d="m99.832031 196.65625h-43.601562c-6.800781 0-12.320313-5.515625-12.320313-12.320312 0-6.804688 5.519532-12.320313 12.320313-12.320313h43.601562c6.804688 0 12.320313 5.515625 12.320313 12.320313 0 6.804687-5.515625 12.320312-12.320313 12.320312zm0 0" fill="#26a3b9"/><path d="m379.710938 219.332031h-43.597657c-6.804687 0-12.320312-5.515625-12.320312-12.320312 0-6.804688 5.515625-12.320313 12.320312-12.320313h43.597657c6.804687 0 12.320312 5.515625 12.320312 12.320313 0 6.804687-5.515625 12.320312-12.320312 12.320312zm0 0" fill="#26a3b9"/><path d="m269.964844 349.664062c-35.328125-.027343-63.960938-28.648437-64-63.976562 0-6.804688 5.515625-12.320312 12.320312-12.320312 6.804688 0 12.320313 5.515624 12.320313 12.320312 0 21.71875 17.601562 39.328125 39.320312 39.332031 21.71875.007813 39.332031-17.59375 39.34375-39.3125.007813-21.71875-17.585937-39.335937-39.304687-39.351562h-142.199219c-6.804687 0-12.320313-5.515625-12.320313-12.320313 0-6.800781 5.515626-12.320312 12.320313-12.320312h142.199219c35.132812.28125 63.46875 28.839844 63.46875 63.976562 0 35.136719-28.335938 63.695313-63.46875 63.972656zm0 0" fill="#26a3b9"/><path d="m244 68.707031c-35.316406.042969-63.9375 28.660157-63.976562 63.976563 0 6.804687 5.515624 12.320312 12.320312 12.320312s12.320312-5.515625 12.320312-12.320312c0-21.722656 17.609376-39.328125 39.332032-39.332032 21.71875 0 39.332031 17.609376 39.332031 39.332032 0 21.71875-17.605469 39.332031-39.328125 39.332031h-94.3125c-6.804688 0-12.320312 5.515625-12.320312 12.320313 0 6.804687 5.515624 12.320312 12.320312 12.320312h94.3125c35.132812-.277344 63.46875-28.835938 63.46875-63.972656 0-35.136719-28.335938-63.695313-63.46875-63.976563zm0 0" fill="#26a3b9"/><path d="m78.027344 222.046875h-13.359375c6.804687 0 12.320312 5.519531 12.320312 12.320313 0 6.804687-5.515625 12.320312-12.320312 12.320312h13.359375c6.804687 0 12.320312-5.515625 12.320312-12.320312 0-6.800782-5.515625-12.320313-12.320312-12.320313zm0 0" fill="#168aa5"/><path d="m99.832031 172.015625h-13.359375c6.804688 0 12.320313 5.515625 12.320313 12.320313 0 6.804687-5.515625 12.320312-12.320313 12.320312h13.359375c6.804688 0 12.320313-5.515625 12.320313-12.320312 0-6.804688-5.515625-12.320313-12.320313-12.320313zm0 0" fill="#168aa5"/><path d="m379.710938 194.683594h-13.347657c6.804688 0 12.320313 5.515625 12.320313 12.320312 0 6.804688-5.515625 12.320313-12.320313 12.320313h13.359375c6.804688 0 12.320313-5.515625 12.320313-12.320313 0-6.804687-5.515625-12.320312-12.320313-12.320312zm0 0" fill="#168aa5"/><path d="m230.617188 285.6875c.007812-4.511719-2.457032-8.671875-6.421876-10.824219-3.96875-2.15625-8.796874-1.964843-12.578124.496094 3.511718 2.261719 5.636718 6.152344 5.640624 10.328125-.0625 11.617188 5.039063 22.660156 13.925782 30.140625 8.886718 7.480469 20.636718 10.625 32.074218 8.585937-18.84375-3.269531-32.609374-19.601562-32.640624-38.726562zm0 0" fill="#168aa5"/><path d="m269.964844 221.734375h-13.359375c34.050781-.03125 62.15625 26.621094 63.9375 60.625 1.78125 34.007813-23.390625 63.445313-57.257813 66.972656 23.511719 2.449219 46.460938-8.269531 59.671875-27.875 13.210938-19.601562 14.535157-44.894531 3.445313-65.769531-11.09375-20.878906-32.796875-33.933594-56.4375-33.953125zm0 0" fill="#168aa5"/><path d="m191.304688 132.683594c-.003907 4.179687-2.128907 8.070312-5.640626 10.328125 3.78125 2.464843 8.613282 2.65625 12.578126.5 3.964843-2.15625 6.433593-6.3125 6.421874-10.828125.03125-19.125 13.808594-35.460938 32.65625-38.722656-11.433593-2.042969-23.1875 1.101562-32.074218 8.585937-8.886719 7.480469-13.988282 18.523437-13.925782 30.136719zm0 0" fill="#168aa5"/><path d="m244 68.707031c-2.230469.003907-4.460938.121094-6.679688.355469 33.867188 3.523438 59.039063 32.964844 57.257813 66.972656-1.777344 34.003906-29.886719 60.65625-63.9375 60.625h13.359375c35.132812-.277344 63.46875-28.835937 63.46875-63.972656s-28.335938-63.695312-63.46875-63.976562zm0 0" fill="#168aa5"/></svg>