<svg height="450pt" viewBox="0 -47 450.75694 450" width="450pt" xmlns="http://www.w3.org/2000/svg"><path d="m240.777344 201.210938h-194.660156c-6.804688 0-12.320313-5.515626-12.320313-12.320313s5.515625-12.320313 12.320313-12.320313h194.660156c6.804687 0 12.320312 5.515626 12.320312 12.320313s-5.515625 12.320313-12.320312 12.320313zm0 0" fill="#26a3b9"/><path d="m334.855469 201.210938h-39.230469c-6.804688 0-12.320312-5.515626-12.320312-12.320313s5.515624-12.320313 12.320312-12.320313h39.230469c6.804687 0 12.320312 5.515626 12.320312 12.320313s-5.515625 12.320313-12.320312 12.320313zm0 0" fill="#168aa5"/><path d="m398.941406 201.210938h-13.457031c-6.804687 0-12.320313-5.515626-12.320313-12.320313s5.515626-12.320313 12.320313-12.320313h13.457031c6.804688 0 12.320313 5.515626 12.320313 12.320313s-5.515625 12.320313-12.320313 12.320313zm0 0" fill="#26a3b9"/><path d="m261.644531 309.808594h-130.628906c-6.804687 0-12.320313-5.515625-12.320313-12.316406 0-6.804688 5.515626-12.320313 12.320313-12.320313h130.628906c6.804688 0 12.320313 5.515625 12.320313 12.320313 0 6.800781-5.515625 12.316406-12.320313 12.316406zm0 0" fill="#d9ecf2"/><path d="m79.496094 309.808594h-67.175782c-6.804687 0-12.320312-5.515625-12.320312-12.316406 0-6.804688 5.515625-12.320313 12.320312-12.320313h67.175782c6.804687 0 12.320312 5.515625 12.320312 12.320313 0 6.800781-5.515625 12.316406-12.320312 12.316406zm0 0" fill="#d9ecf2"/><path d="m327.21875 148.886719h-314.898438c-6.804687 0-12.320312-5.515625-12.320312-12.320313 0-6.804687 5.515625-12.320312 12.320312-12.320312h314.898438c27.394531 0 49.601562-22.207032 49.601562-49.601563 0-27.390625-22.207031-49.597656-49.601562-49.597656-27.390625 0-49.597656 22.207031-49.597656 49.597656 0 6.804688-5.515625 12.320313-12.320313 12.320313-6.804687 0-12.320312-5.515625-12.320312-12.320313-.007813-41.007812 33.234375-74.261719 74.246093-74.261719 41.011719-.003906 74.257813 33.246094 74.257813 74.253907-.003906 41.011719-33.253906 74.257812-74.265625 74.25zm0 0" fill="#26a3b9"/><path d="m386.753906 356.84375c-35.320312-.039062-63.9375-28.660156-63.976562-63.976562 0-6.804688 5.515625-12.320313 12.320312-12.320313 6.800782 0 12.316406 5.515625 12.316406 12.320313 0 21.722656 17.609376 39.332031 39.332032 39.332031s39.332031-17.609375 39.332031-39.332031c.003906-21.71875-17.605469-39.332032-39.324219-39.332032h-258.554687c-6.804688 0-12.320313-5.515625-12.320313-12.320312 0-6.804688 5.515625-12.320313 12.320313-12.320313h258.554687c35.132813.277344 63.46875 28.839844 63.46875 63.972657 0 35.136718-28.335937 63.699218-63.46875 63.976562zm0 0" fill="#26a3b9"/><path d="m240.777344 176.570312h-14.34375c6.800781 0 12.320312 5.515626 12.320312 12.320313s-5.519531 12.320313-12.320312 12.320313h14.34375c6.804687 0 12.320312-5.515626 12.320312-12.320313s-5.515625-12.320313-12.320312-12.320313zm0 0" fill="#168aa5"/><path d="m398.941406 176.570312h-13.457031c-.152344 0-.292969.039063-.445313.042969 6.609376.238281 11.839844 5.664063 11.839844 12.277344s-5.230468 12.039063-11.839844 12.277344c.152344 0 .292969.042969.445313.042969h13.457031c6.804688 0 12.320313-5.515626 12.320313-12.320313s-5.515625-12.320313-12.320313-12.320313zm0 0" fill="#168aa5"/><path d="m261.644531 285.171875h-14.34375c6.804688 0 12.320313 5.515625 12.320313 12.320313 0 6.800781-5.515625 12.316406-12.320313 12.316406h14.34375c6.804688 0 12.320313-5.515625 12.320313-12.316406 0-6.804688-5.515625-12.320313-12.320313-12.320313zm0 0" fill="#bdd9e5"/><path d="m79.496094 285.171875h-14.34375c6.804687 0 12.320312 5.515625 12.320312 12.320313 0 6.800781-5.515625 12.316406-12.320312 12.316406h14.34375c6.804687 0 12.320312-5.515625 12.320312-12.316406 0-6.804688-5.515625-12.320313-12.320312-12.320313zm0 0" fill="#bdd9e5"/><g fill="#168aa5"><path d="m263.265625 74.632812c0 3.972657-1.917969 7.695313-5.148437 10 3.746093 2.714844 8.699218 3.097657 12.8125.984376 4.117187-2.113282 6.699218-6.355469 6.679687-10.984376.042969-24.601562 18.097656-45.460937 42.4375-49.035156-14.273437-2.214844-28.800781 1.949219-39.734375 11.386719-10.933594 9.441406-17.171875 23.207031-17.066406 37.648437zm0 0"/><path d="m327.21875.378906c-2.417969 0-4.796875.136719-7.171875.363282 39.4375 3.808593 68.933594 37.914062 67.019531 77.492187-1.914062 39.574219-34.570312 70.667969-74.191406 70.652344h14.34375c41.011719 0 74.253906-33.246094 74.253906-74.253907 0-41.007812-33.242187-74.253906-74.253906-74.253906zm0 0"/><path d="m347.414062 292.867188c.023438-4.625-2.558593-8.871094-6.675781-10.984376-4.113281-2.109374-9.066406-1.730468-12.8125.984376 3.230469 2.304687 5.148438 6.03125 5.144531 10-.039062 11.699218 5.148438 22.804687 14.148438 30.285156 8.996094 7.476562 20.867188 10.542968 32.359375 8.363281-18.621094-3.46875-32.132813-19.707031-32.164063-38.648437zm0 0"/><path d="m386.753906 228.890625h-14.347656c33.941406-.015625 61.984375 26.480469 63.890625 60.367187 1.90625 33.886719-22.988281 63.363282-56.71875 67.152344 23.570313 2.675782 46.683594-7.914062 60.050781-27.507812 13.371094-19.59375 14.796875-44.976563 3.710938-65.945313-11.085938-20.96875-32.867188-34.082031-56.585938-34.066406zm0 0"/></g></svg>